<mxfile host="app.diagrams.net" modified="2023-08-03T11:13:28.177Z" agent="Mozilla/5.0 (Macintosh; Intel Mac OS X 10_15_7) AppleWebKit/537.36 (KHTML, like Gecko) Chrome/115.0.0.0 Safari/537.36" etag="kdEeDOaKx9MnNKsg_54B" version="21.3.8" type="github">
  <diagram name="第 1 页" id="KAw4oiAT5qhfT37vDSUG">
    <mxGraphModel dx="1593" dy="912" grid="1" gridSize="10" guides="1" tooltips="1" connect="1" arrows="1" fold="1" page="1" pageScale="1" pageWidth="827" pageHeight="1169" math="0" shadow="0">
      <root>
        <mxCell id="0" />
        <mxCell id="1" parent="0" />
        <mxCell id="Un7Jyg0JT3fOC_ovDJ1f-45" value="" style="shape=image;verticalLabelPosition=bottom;labelBackgroundColor=default;verticalAlign=top;aspect=fixed;imageAspect=0;image=data:image/png,iVBORw0KGgoAAAANSUhEUgAAAK4AAABUCAYAAAAbBQyRAAAAAXNSR0IArs4c6QAAGbhJREFUeF7tXXlsHNd5/97M3hdvUjysk7JESZQlkpKsw5JlK6kSVFauMmkbIH+kqIO0/SdGihZNLahomrQFeqRNgxQFDAROassHYsl17MixJFu2LlKHTdGhLFG0xENc3uTeOzOv+N6btzt7kLsrKpb3GIDgkvtmduab3/zm9/2+b+cRuIvlxIkTprExxanYTWb3XaxfqKtEoypVKuTw1ZMnA4cPH9bEcVJKyQsnrzpNU3esZrNMCvX4cz2uOQAol+0Rn++Wv7OzU81l/ZyD+OIrpzaroB0kQNZTgHJCSc7byGUH82osAYUCjAOl50MR9aVvdD42fOTo28sJkIMUtC2UkipCwZRXx/Q73FlKKAWAKULgQ5Dko1cvvHnJeMEv9NHZgC425sjRk1+nFH5ICNTS0glIG1eK54JACDTok2X5EAX6V5RCGwC1/A4xkN+bpqARiQxQoN8jIe+Rzs5OcbdCYKddMgGXvX/o0CGyYdNj+zSJ/lySJE99XeXgmpVNalWlZyUhRM7vqN27vVcUxT/inR7ovTbgmZkNNBJgKNbcbqe3tWX5VG11+XKzSXbdu0/M7y1plCqT03MDvX0D8uj4dD3V6IRsthz4yud3XDYcWVrwLgTc2HvPPvua2+Jx/gQo/cPVq5r6N7asaJQkyZbfYbu3e8+YVl+CwcjMW+9dtgQCIXt9beXktrYWu8Vist/bTyycrVFK1Q9+O3C77/qteiBwrPPAo51JR5cC3vmAm/D/nx15Y7nVan1LliXTF/bvrJFlyVo4YVv8kRhBi1tTFBXefOcSDQRDZPOGZrpyWX2mO9vidyLPtxAKRXxvnr40FQiE6kKqveEbX9o2uRB4swPuy8fXWmVzd5nH0ft7j25pz/MY3fPdTwauPxCCU2feB1XVYMeWdVBdWXbPP7PQNqioWvBMV+/0yOhEvaJpHX/8xccuLha45Bcvvt4im+2Xaio9V/bu2tRRaEFbzPEkgxb/9vmD8PbZDwDvb7u3tUKZx7mYjyiKdVVNC1+41Dd3a8hbHVUiu77+5c+eAWAhNC6xv7NhXPKz515dZ7W7L5aAm4qhdMCd8wXgnXM9JeDmcMkZgRsKBx/5Rufn3ssZuM8884zNZmus1MzgjEY0i2QhK21m68uVFZ5rjz+yeV0O+1PwQ43AFa9LwM39tCuKqpy/3BcaHB5zaYp2MKL6uwOhaFQKmn1PPnkgqG8xPeMeOnRI2rj98U1KRPs6AbKTUrqCEPAAJRoQsNVUlYcf3bGx5CYYzksycPFvBO7p81cZ4z6yrRXKS1IhI5KjUQUuXLlGB4fHCFDopYQGgMKMRMgNWSJvWcB57MCBjoDYUIJUePn4mRYaVn6pUdq8tKlOqqpwgcVkgVl/AHr7BqCpvhq2d5QIN0F06TaYAHAqcDdAuadk3WZCrqKq0P3+R/Dx7VGor6sCh90GkUgUJiZnaSAcnnM5bN0PLtv6udWrSRi3FQNuV1eX+fZY6F2L2bSlfeMa8LgdoGoUVFWF2bkAnO3uZcB9uL0ltg9GtiEE7XYK+Fss6f6OXTEFMt54rHi8Ijl790IvKz88sm1DLDlLjlfyycwUr0Iej8C99MF1GLg9Ch0PrYHKCg+YZBk0qsGNgWHo/3gYaqrL31m9tHp/Q0NDIIayF469/Tgh8OaGNcth+dIloCFo8UdRYdYXgPMXP4TamnJ4uG1tpoun6N4XgNQ0jQE3EAjBmYt9gH9jvCrKS61ImUDBgXsDBkfGYevmFigvc4IsyyBLEovp5avXwTs2NbtqVeM3H1q78kUDcE/9p9Vi+TP0Hd0uB/MgVU0DVdFgzh+Erit94LRbYddWLhWMzLrQTomTWqjjjRIBXyNYUa+d6e6DiKLA5vWroK6mPOt4YSyTmTfTSS+E8dGoChd7boB3fBp2PbwR7DYLY1wErixLMDUzB6fP9Whut/1v9z+65R8MDTSnfuNy2B7bu2sTECKxE4DgxSshEAgzxOMJeWxnKzsJQhpkCmqyNCjE8UbwCtY9c/EaBIJhWLf6AVjaWFOKV4YTH45E4fzl6xAMhmD39k0MrCaTzH4jeCVC4JU33sOL+vtXu996Og7cV05ecrscmx7f3caueA5aBK/KRPKHH92C0bEpaN/YDNUV2SUbhcAEme4UyYwrWBdPgj8YgRVLa2H18vqsGLcY4pWc2Ir4Ts8G4MKV61Bd6YENLSs5cJFtEbw6cF8/cQECodC/Nze6v2sEbo/b7Vi/75E2Xd/GGVdRNLg1NAr9A8NQVeGG1palLKtLl4iJ4Ccb88nywjhuPvbOl+0na1x/MAyXegZYjoBWWOvapWAx8yY6cUzJ8ckUg0If33t9CEZGp2D92hVQV1PBgWuQCpJE4PipLvD5Qv/ltgS+kwrc3TpwGdty1kW5gN5kz4c3QVEUWNvcCFXlpTJmOkcBpcLHwxMwcNvLJBcmGC3NjVBX7clWJRXduFlfCC5dvQlOpx1a164Eu80KJhOPndC4icBtTAPcGOOiq8ClAnY74c+tYS/c/HiEZXwPLq+LsYgx0kbmSGbMdGck38eLZEr8xpPQ1z/M9K2mauB0YnYswZpV9eBxpjbV5fvxL3b/A6EoXLt5B/yBMHOzmuprGNPGgGvQuMffFow7H3B1jSt8XMa8igrhaBSu9w/C+OQslHscsHp5Lbsi0i9I5vEeCfFq/v6+/Bwf07gAEAhGoK9/BIKhMEQjUZBNEjQsqYOJqRmwWs3QvKwOnHYLk1kYj8RYpD9+Ji8KdHxUVaH/1hhMzfigoswNDzY/AFaLGWQJgasnZgK4CVIhLXDbGdNyH5czrnAXUOuGQmG41j8Icz4/q24sa6oBq9XCsr75F+NJwYoeTTppyWvmz3iWjOllXpQHKKUqy90wNo7tpAQ2P7QWRr2TMDYxw07KsqZacDisKfFKBHIiiOPQjccpn8djzNBFwHjhncnpsEHLg8vAYjYzwDJta+IaFyUCkwuSBL8+dUHXuOmAu7udWWEIXO4qGOSC/rffH4TBkTGYnJ4Fs9kEZWUucDsdYLPZwGQyfBeQfXMlEYTzhZ79P8/GK1EVgsEgzMz5YGbWx3a/qaGGSakrH1xj7kz75nXgtNvg9sgYjIyMs7iWlblZZdJux3iZDSER8WLBSOHklP/F4pUf4/GiRrvL5w/A9IyPkSJe5E2NdTHfljGt7t2K13hTlyTJkJzNC1xupCNwUacpMa0bZ2C0yCan5mDEOwGRaJQLaaR11Cf6lSLCiWyM7yXfHPMxC0GsqKoCkYgCqsa1P56AMrcTViyrB7fbye5KF7p5W2P7Jl7QQRDjyeq/NQJ44YtY4UmyWDjTFEJ88Jzyu7Uau6syEsQ4afzujfEym2XWk1BZXsaYVpYRI3GJYNIlAv4PWTdjcvaZ3e1s43j7i1XPDJ4u/2DuNCCoUfdOTM4yxokqKjtBCdaNzgqF9CV2UYBB0NntFqitroDa6koWXHzP78cS+VUgQBjjCuCKROaOdxK841MQDIaZHEuJWT5e0QkGbWoHuIiZ2SSDx+OCmioOWCYFGEg58THA6iSIr4kuFTICd59BKmByhuDE4CJQUePyMjBePZyN2W/Kr6hQOAJYusNbgkaB/R9px2oxgctp46qhABaRPGDCZbVYWPCNHq0/EIQLF68y6dBhAG6yfRYKR1lxh7MRfiN73m9j51XUolENpucCutcPIOmANJtMTBIIoHIm5SXdmG8be80BjHfrrBg3BlwEns60XO/yW2KccVEH8x+RzPEyMaZeeDvF97hudTqtgC2SmapQeXV29J01dsWJ42PA7eb9uB1t68GjSwVjlS0fjzXbfcYL8o53BgjTpngX4hqVVcD0276ohonKmNCzyLII9Jh/qwM3q+QMQcdLl9xZYL9FoobsqzMEZ2QdzIx5Ud/w8eIHYYxZIxYs8hW4C+13MnCZVAgE4byucbe0bQC3k38zXUiChaqLRlbOFiiftnHhsALDY9O6I8Dlk6zLKPzNQGtwDDhoic7MIjnjbCwYFxn51ycXcBWYxjWCL8HT5cI67jjgLY7LCQZYHKv38HLgA9uW22XnjPtpi/Ai9scIZvFa6DgO3KvsbtPRngrcZHCmK48vYtfu+6qhsAIjCFzGtPxWH2NbrCYy4HJgxpMwIRniFhhbHxmYAT+DHcaBKxhTZ8+ERI03l8eKEynAjTMuTzyA6VtszMlXxk2HhGTgIvjwROASCIbgXNcH7Ni3InBdDvZ/vLjTMWrBATcU5YyrA0/GbkIELwMtvuYgRUDzfgSeoBn1bkzbCqmQkXH3oI/LpYFoJmfdYgzMXMMKXcvHiC4yDlIGViEx0GHQKANuoWlcI8saE7M4cHuYNNja0cqkghGc6bRuIYEXNe6Il0sF9sPAZ9S33EHgTKy7CiwRg5SETFipODajVGD6lPmVKrv9JwBYOAlC9zJ3gVePhI3G1heWmkbBHQPufb+L3dUOzHenSAavADBKhbNdPeyztratj9lhubBtPgM5LhXijoAAL/q1Ems+0h0FA/vGJIXBSTD+b8HKGUoFI1iNyZa49Qt/VyRgcTaOSwsB5JhUqHRlKAvfFabu+0rpJANKhbMGqSBcheSWxnwG50KBD6JU8E7HEjJW+dJZF5tn0N8WjGss6fIKmUjmhHQQjJ0F4yIQEXCxhIuxLGfeuNvAtW5MHjCG5taYcQy+LkSNK05cuiQNS5rJwE3Xh1uowEWpMDw6rRcP4q6C8G2NyRpzE3Q/F20zYZNh8hZ7rSd3b5w8P3+vgpFxuWTQpYIOXgFK8V6CA6F/wTLG0vq6KBWqKwsrOTMyTrKUYFLhwgcsdtvaN4DHndq7XKigxbggcIdG43aYsYgQS86Y9kVW5R4vH6MD16CHuUbmYzJrXL3qxW0uCqoOQOHrUlZ04KzMkzFeJUsGsQB3oQM3+baJwD3XxXsVhMa975rmE9yBUCgKQ96pmAWGF3Y8SeMJmRHMHLiYmHF5EGdeHdQ6K2cELgelbokZQCvYN97yyJ0E7jLwhI5/WVCvnBUJ4yZjYj6N+wli575+lJFxYwWEFIdBMK0OWMa+cXYVjgOa/8IDzghcI0AT5IIO6FSWNVTMdHchrn2FxnUXTK9Csv2VjnGTNe5CSCo02YCuwrB3ysCqApR6BU3XrJxZBRunAtfI0tnZYaw5mvcq8GSL6DJAeLWGAoXOqjGWRXDHehU4c7PkrIA17mKBe1/p8Xfw4fHkjLOlsVeBv+aJVwJwhVwwjE+WF29kLvmmlwpCQgj7S7BqrDfBKCuECwGF7SqkO+/cx41XztAOK6YlOTkz9ioICRDXsqInAeItjHqiltCrIElwV65C3LMVulZPxpiuxQqZpidxibIB33O7Cq/kuxAQS8BN7yoIAMe92uTKmiEZQ/AaehVQK2csQCT4uEZLTE+8eDImfF4uKZg8SOoMY7YYALgdJalQzIyLoMNeBd4so/ctGKVCrFIWLwsn9ypk1rh6r4KxKiZ6FYyFBeEexBwF0ZjDvgERdxVEr0JJ4xYPdNMVIIREiLNueo1rlAe5J2cGaytdrwL+L9m7TbbAjG5EMfq4JY2b2I/LgCu6xAy9uYlVs8QeXNGELipoGaVCol9rLPMaXQVDX4KQDYayMCtasEYbYE02JcYtLsbFyploHhfVsbj1xbVtjH1j3WN6/25SN5mQDRl93OReBdEdltyrIHoZ+P8N8oB5uXpvA7oKJY1bPKjVS76sV4F9uzuxV0FU0dLZYQm9CgkFC26f3bWrkFBR05M2kZCxHlz9Ww/F1qtQ8nETI7BQr4JI1HjZN7VXIUXjLrZXgTeH86abUq/CwgRassPQDsutVyFejPgEehWMCZixCFHsvQol4MZ93OReBaOXK5pruHvwKehVSK6klZKz4q2cJXSBzefjzgPc3O2wUq/CopKpEuOKRvJSr8KigPRJr1wCbmLJt9Sr8Ekj8C4/rwTcUq/CXULn/q5WAm4qcEu9CvcXk1l9egm4qV+WLPUqZAWd+zuoBNxUjVvqVbi/mMzq00vA5cAt9SpkBZdPz6AScHWpUOpV+PSAMps9KQF3/ucq5FWvQpnbDpXl+ECQbE57/o8pduCGIwoM3pnM6bkKd92r8PzRk+fdTseWfWwuX/4Q4pRehKQHg2Tbq1BR5oSKsuIpexY7cLGldWBoPPUhIGkayGPP0M2iV+FXb52HcCj8IxqqNszle/TtXzkd1v17d25iM8AYnyqe8i2IlKfXpH5BUoAa+RMfMYr9CsWyFDtw8TwPDI6z7yHey16Fo2+8izNA/aDz9/d8L3bzfv7oyR/Zrda/2LWtlbqcNnKvnquAjcRLasrYfGjFspSAC+CdmAN/MHTPnqsQjUbh/948pwIhf/PVJ/b8owG4pzplWXq2vXV1sGFJtSedVLib5yo4HBaorSquCZhLwOXTw3onZxnj3oteBZyd80x3L86I8s2vPrH7pRhwf3HsRLVMSc+ypjr5oXWryggh5nQaVjwjVzw/jD8vLP1zFXCHOdvyKe+LZSkBlz+qYGxyjk1kKOTC3T5XAUHadaWPDt8ZvyUR8pmvHNjzUUKe/8LRUz+UZPKtXds2TpW5XcuTv4ITB23m5yogY2NSho9fKralBFx+xv3BMExO+/l8Z4t4rsLU9Cy9cLkPQtHoz0hw9JudnZ1qAnBfeu1skxINHZNlyfLYrrYaq8VSpVEq5fpcBVTlONEy2mCFNGFJthdgCbjxSE3PBsAXCKVMGZX4CKb4Y5iSv3MWDkeg58N+esc76QUib+184pFbuPUE4B45ckQGx5L9oKk/tlgsltUrHrAuqa0sM5tNckzf6nM7zPdcBdwozmvmdOCMi3wWmmJbSsCNn3G0Vmd9AaZ5BfMa5zyb77kKOMvm9IyP9n88RLzj07eJRL/TeWDvi2LLKSUBBl5nYytVlH+TZbLTarFKFeUupdzjslRXV7DpfcRD7+IamNthqGXxq+g4g3qxFBvSXZQl4CZGBcGL0+XO+YPsjRTNqz9HATETCodhZtYPo6MTbFb6aFQdBon+eY2LHtu7d68yL3DFG8+cOGFz+aQvaxr8KQBdRQhpaGqoDa5pXuYwJm0oC/B5/TgDuKWILK+F7iIl4KaPDkpOfyACUYXjTzxyVJ8KGfoHBuntIS+hlM4CgJdIcFzRlMN/dHDfaPIWMxZhf/rTLnNlQ2A31ejrleXu9x/eurENryCkcpw9BT+9mNm1xLi5C0EEsIIPSkRLCnFECFCg0d6+m8GhYa8HKH1KtZEXvvbZ3YOEkLQzc2cELu7Wc6+eaiEqvVJVUX55+9bWLbnvanGtkci4OAl16uQlxRWRzEeraVr4Ss9Hs0Mj3hoTMW3/8hO7zi60VlbA/fmxU6tNKj3rdjkG9uxqb8u8G8U9IhyJwrvnLrPJutsfaoGqyrLiDkgWRx9V1eDFy72TY+PTjRazufmLn995Y/HAfek3y8xm03FZkkz79+1YkcV+FPUQzAHeOXuJBgMh0rquGRobaos6HtkcfDgcDZy5cGXMHwg2QrXF07ljB8/k5lmyYtwjr79XCZHIswDwmUd3brnjdNqastmZYh5z+tzluZnpOfea1cuheeUDxRyKrI49EAxFTp7u9lMNrnUe3P1wppWyAy5aZLYlT1NN+97SpiU9Gzes3oCuRqaNF+v7qqqFT5+9FJ7zBTw11RXejk3rPLIsFV8JMQcAfHT9Vl/fjY8fBAJPffWJR/8106pZARc38vwrb+8E0F6yWiyure3rA2UeV02mjRfp+9rtwTt3ej68UaVqVCME1C2b1s3U1lY2Fmk8Mh623x8cPfXeRZlSbRbMps93fm5XX6aVsgbuiRMnTKOz5McEyJ9UV5Xdbt+0rtZsku2ZPqDY3g8Ew/73zl/xhcORWhnI3yugfddiNgd272iL2KyWJcUWj0zHG42qM+cv9oSmpmerCSH/vLLB+XRHR0c003pZAxc39NprZz0+JfwmUNrW2FD30bq1K5dZzKYSeHmUtWAwEnj3/KXBYDCySpbJT2zg/OsQ9f9Ao/TbDrvNu6V9vc3lsFeQYmzgSIPESETx9f62f2ZwZLSOAOm2UPiDL3xhz+1MoMX3cwIurvDcqyc2SBr5b0rJtopy92DzqgesNZXlVZIkFU+neFJkFVULDA7dmbl+87YcCkXLMUxm1fadL31p28T//vLUAxKh/wRAOp1O28yKpQ3+xvq6crNZdmVzggpxjKZpIe/41MTArWHT+MRMJQDtlkF68isHd7+f7fHmDNxDhw5JLQ/ta5ZM9KeUantkkxx2OexTdTWVw0tqqysdTnutSZYK3nGPRtXJOZ/POzg8Fpycml4VCIasmkatBKR/Aavp+537d0yKk/DzV9+pMGvaU5TSvyQSUZ12e6Sqquxm05Jau8vlrDabTeUAtICTXUIVVfWHQsGxoTtjU17vVIPPFyhTWbzgmKYpT33ti48v6NsmAzpn4IoNoOb1+si3gcK3gEITIcRFce7U4ltUoDADBHoJmP6u8+Cu4+lCgPEan4P9lJKnKSGrgGplAKS4Oux5YLDGO0co9UoS/IcVXP9z4EBHIFfYLApoCNSXX35rqWaStlMgbRRIAxBaQTRizXVH8m48AR8lZBIo3JSI1kUtlnNGlp3veF599Z0KP9W2U5V2AMAKSSIVlFInoQXe8UEgRAGmKdBhSSLd4DCf7nx8x9DdnvdFAdf4ocgoYwA2CFst9mi4gG97/KgVBRSTyR3p6joWOnz4ME6gmdOC7aN2+0qr4pqzBH1gcue0dv4NDgbDGtRYI1PXroWffPLJjK5BpiP8f2k4frgEVogCAAAAAElFTkSuQmCC;" vertex="1" parent="1">
          <mxGeometry x="70" y="740" width="174" height="84" as="geometry" />
        </mxCell>
        <mxCell id="Un7Jyg0JT3fOC_ovDJ1f-1" value="" style="rounded=0;whiteSpace=wrap;html=1;strokeColor=#999999;" vertex="1" parent="1">
          <mxGeometry x="270" y="400" width="340" height="210" as="geometry" />
        </mxCell>
        <mxCell id="Un7Jyg0JT3fOC_ovDJ1f-2" value="" style="rounded=0;whiteSpace=wrap;html=1;shadow=0;glass=0;fillColor=#fff2cc;strokeColor=#d6b656;" vertex="1" parent="1">
          <mxGeometry x="280" y="455" width="190" height="100" as="geometry" />
        </mxCell>
        <mxCell id="Un7Jyg0JT3fOC_ovDJ1f-7" value="" style="shape=image;verticalLabelPosition=bottom;labelBackgroundColor=default;verticalAlign=top;aspect=fixed;imageAspect=0;image=data:image/png,iVBORw0KGgoAAAANSUhEUgAAAGYAAACQCAYAAAD6FB5mAAAAAXNSR0IArs4c6QAADgBJREFUeF7tXW1sXXUZf/7nnHtebu/armu7tZ0UNrZgmDBBMSpQamIkjK2Io42YaEiMiZBg9ItRDAyiicQPJkYSoh8UEqMbDLIx5QOJ3aaGRAgypwKDvZTSbqNrt7a397yfv/mfc899673tbe9z713Sp8lNb7dzfud/fr/zvP3OPS2DMl8HDhyQxT8PDw/75f6f/q3+DLDCQ/zpyOgOyWd3MMb6OQDnPLCDoP6LWMtHkBU2Bz6fgETLseFdt12IucgJ88Lhow8HHH4EwDYAcJ8xpnLO1bVMWoPO3QPGMgz4JHDl0eGh218Txw2FOfDyX2/lknw4qWv6zpu2Z3o3tvdKjEkNWtiaPozjeMHYxKWZd06d1WzHvShJ0lf23nvHmUiYQ0e/y4H/8rZbd0xf29fZu6aZatLJnx2fuvjG2/9LAWePjAwNPBcKs//Q6E8A2FNDd9/ONVWmSGmCOLbrB4de/TsHzh4buW/g6UiYV44+CgH7xRc/d/Nc38a2ziasa00fkgPA2OTM7D/fPKlIEnv4gd0Dz0ep7JXjt0EQHEytS2V23rhV13W909AVXVcVKeBhf7amiUM/ecZAYgwsxwvm5k1nLr3gv3NqzDVNa5xB8MDw0JfeC4UZHR1VptPytwMe/FqWFVtRJG3b1msvXd/fvfHt/7wPpuWgr20tAxq6Cjt3bIMPxj6+eOr9c52u5wIP+Ekms0f27rrzdcYYL5pjXjhy7AuBD98DxvfcsH3L9A1bevpef/O/sJCx1jKP6OfektTh85+5Ed49c37i3ffOtHLGHzfXwbMPDQ7miC4SJmoEjg4Cg/03bN/ikDDomoSARcKcOqMCh5GRobtGC49GwtSH+yVRSZgmkF7NIUmYalhqwjYkTBNIr+aQjRWGsch4q/MXX+1MdRWtryHC6LoOLS0p0LQEKLIEslRfeVzPh0zGhrn5OfA8b8nLQJYVSK1LgaHr4doURarrxSNukZi2DfPzaTBNs+La6i6Mriehp7cPkoYGuqpAIiGDqsihZy3kEX5B/F2sMpaMA4eVxFcOh3NwvQAypgvTV67A+ckJ8P3y9/JkWYau7h5oa2sFXVNASyigJuTwwilcV+n6Io9jdevz/QBM24N0xoLx8XHIZBbKilN3YTZfswWShh6esHhpCTm8KoXdUHrylS6feLtqMqBIY44bgO36YNkeTE5OwOzs5bK7tra2Q9fGnty64jVKkrhAxPoi8pc7frXnIRYRCuP44Dg+zKUXYOzc6cYLk0gkYPM1W0MhhCDxiccRE0dI4YkvR0J0reYjq/SsQmG8AGzHB9v2YObKLFw4P1725Ddu6oNUqhVUNX/RiDVKBam2UlRXs85yB/X8aG2WWJ/jwbmzH4DrLraz6hoxmmZA7+Z+SChSmL40Vc6lMsYqE1x60ishIRcx2ROfnU/DxEfnygrT09cPyWQyt7Z8xERJtNIFU8v6RMRYtg+WGwnz4dhZsO3FtaYBwlwDCSV/RYoaI36OL0qRLqLEIYjIv6+c1vK5vZxgRRHjeDA7Nw8TH42Vhevt6wdDCBOmWAnUbI0REVNY6wrXV5jiyoEW1sZ8isuvOY6YMGpcDz481zRhshFTkMpEBC1VY8oV3mr7uNIaM7dExBQLk0+1+RpT3KDEQtSyPiGMiBhH1MDmRkx/2RpTmMpWkqqWawCEMKIrE4VfpIu5ucqprJIwhV1ZXNNW24WVrjcfMV7YoIw1L2Lyqayo+IuOJ+zMitvO+Hbb4hwfd0hLt6mxMGZ4VVaRyoxsKss2AIvb5XLrq7yGcm1+4YVXXPx9+HDsTHNqTE+2+Jd2ZSJi8ldj5S5ruS6sbFcWt8thjUnDZIXiH0dM0dqyXVm+xkRHKE2lq43yohpzNaay+EwLT3i1J1soTq7421HXs1RXlktl2Y4xjujYmail+6qUcsOuLOwYm1ljdAN6e7OprCBVxF1Z5bRVvuguV1/C6MrNMV5YZOfmq+jKSoSJ55jCib+wxlQzd1W6yPKpzAvFaU67rBvQ09sPatiKFg6YYrQub7jUGjWFXVkYMVUU/3wqi1rmUmEwo7p0wGyOMJoBosaoihTOLnrBgFlvr0xEi11N8c8OmGL6jwWqt1cmUpl4ieakiV1Z8RzTaK9sqTkmN/lnPbxGe2VX5RxTWPyrydlFBX4FXtmyloxol5volTUtlV3NXlmlriy2ZMgrI69sUcPZABOTvLJC1hvilW29rt/b+omunrdOnoKMaS9SXdN06N7UF96yjTozcYcwe/s2Z8fEE0LhVFPNxFJ+G9Eue/H9GM+H+fQCXDz/UdmNxdoMw8h1jaL4hwZraH0Xm0KrvaNaemAxYAoDU7yEVzY5MQ62vfhTrOKO7y2f2g6nx6fOnz47piz7gT/x7KWkb7rP58FvGWPtxeNItR7w6olfG3vGF2n4WX3OA77AJfhxq9L3m3vu2ZaLgCK2Dxw+PgAQPMMkuaO7q7NLTciKIsthZyNLspgb6asGBsSTE54XRZT47nqBd2nm8mnfdTpAgp+O7L7rVzF8juqDB0c3ewo7rqiq1t3VbbSmWtYbRgKSugri0+maqoSOMX2tnoHoDqcHGcsOn6DImA6kLXti5tL0lGNlrgOJPTiye+AvOWNVpDCmd/+eg3R/2/oNs23rWnp0XYUWIxKFhFm9GIV7+kEAluVCxnLAzH63LAcWTPvklZmPe4DzE13rgrsHBwe9MAReOvKPHZ7vvqqoBmtb39GT1BNSMiuKiBjxXvhMFDG1CVQsTBQxlu3CguUG87OXz3iOaSQkedf9u+84kX2i7NiDEMCzydYNC0ld3SQiRHQOlMpqE6Jc1yaEiCImGzWmSGsumLZzwZyfSTIefGf4vsH9kTCHjv6AA/t5qr2LGZqixHXFMKJ0pmtUYzAkCiNG1BjTilKZ6YIZ1hsXTMfxzPlpDzj//sjQ4LOhMPsPjT4BwPa1tHVCUlNBCEKpDEOKYozSVJaPGidsCKz0jA+MPTayJ/vU8h9fHt0nSeyJVGtXmL4MrTiVibQmBjSqMbWJFQsTdmRhV5aPGPGzlZ4Ww+++kaGBJ8OIiYVpae2CpJ6IokXUGPE+15UlaI6pTReIhMm3y1E6y6YyUXPS0xAE/Mmvf3VwX4kwnaEohTUmfG9o4YeyaYypTZmoxrhgmnHERA1AHEEiYioLEwqRTWVFEUPtcm2yQBgxsRCRGEKkKGLC1nmhgjCpti4wtGwqywpEXVmtcuT3j7syIUY8ZAqBFrLiLB0x8WApvodNAA2YWNJElkz5OSYu/lXUGBowsQSJccp5ZabtgBl2Zy6Y6UuVaky+KyOvDFuWqMaU88pEfVkyYlKtnZFpSQMmviriibMiYfJe2bLCtLR25lpl8srwtUGqMVHkUFeGJ9BSXtnyxZ9SGZ4SJUhLe2WRJVO2KyOvrG6ahMDVeGUV2mXyyuopDXll9WS3Bmzyymogr567kldWT3ZrwCavrAby6rkr0hxDXhm2SOSVYTOKhEdeGRKR2DDklWEzioSHVGPIK0PSIwdDXhk2o0h45JUhEYkNQ14ZNqNIeOSVIRGJDUNeGTajSHjklSERiQ1DXhk2o0h4SHMMeWVIeuTnmDLPYNLnyrBZXgUeeWWrIK0Ru5BX1giWV3EMpBpDXtkquF9yF/LKsBlFwiOvDIlIbBjyyrAZRcIjrwyJSGwY8sqwGUXCI68MiUhsGPLKsBlFwkOaY8grQ9KDvDJsIrHxyCvDZhQJj7wyJCKxYZBqDHll6MIs8fvK6BlMbLZXgEde2QrIauSm5JU1ku0VHIu8shWQ1chNyStrJNsrOBZ5ZSsgq5GbklfWSLZXcCykOYa8shVwXtWm9AxmVTQ1fiPyyhrPeVVHJK+sKpoavxFSjSGvDFs6+lwZNqNIeOSVIRGJDUNeGTajSHjklSERiQ1DXhk2o0h45JUhEYkNQ14ZNqNIeEhzDHllSHrkYMgrw2YUCY+8MiQisWHIK8NmFAkPqcaQV4akR77G0OfKsCnFwSOvDIdHdBTyytApxQEkrwyHR3QU8srQKcUBJK8Mh0d0FPLK0CnFAUSaY8grw5Ejj0JeGTajSHjklSERiQ1DXhk2o0h4SDWGvDIkPcgrwyYSG4+8MmxGkfDIK0MiEhuGvDJsRpHwyCtDIhIbhrwybEaR8MgrQyISG2bVc0yqvZsbmsKS4k/H6+SV1UcYDzKWDablQMZ0IP7d/pbj8czcFCv66+T7Dx/7IXD+s1THJttQpGTSUEHXVWgxhEDRS1MVYIxhr3VN4S3llVlekMlcuagBY4+N7Bl4OmR6/6Fj3wLGn0mu63y/RVd3GoYKQhwhiIge8V5NkDC1XkVLemW2+7aVvrQNOHtkZGjguVCYFw8d+7QP/IiiqpfXd3Rfb6iKljQoldUqROn+FWuM7dtzV6Y+8FxnvQzs3r1DA/8KheGcSwcOH3+eMdjV2r7hnfbWdZ819IQiIkekM12jVIYhUvlnMF1vPj3/xvzszCc5hz8P77nzm4yxIFc0/nDktS0JP/Eik5WO9R0bJjs72m9JGgmNUhmGJBHG4lTm2pevzL51+fJML/e9GVd2937j3i+fEdsWVfOXXvnbzV7g/w4Yu07XjYnujd1uV2f79vaUYWiqzKj41yZSVhg+m7bNqenZU1NTFxO2ZfUB52cVSX7o/t13nIiPsKjNEpGj+OpTAHwQGLQBBx0A5NqWRHuXMOADAws4zAKwUU92Ho8jpaIwcc05ePj4zT7ATcBgU+AHBlGLx4AkSyZwuCAD/Ptre+48IWpKKToNJnh8oyL9H/M+qb095frIAAAAAElFTkSuQmCC;" vertex="1" parent="1">
          <mxGeometry x="130" y="120" width="102" height="144" as="geometry" />
        </mxCell>
        <mxCell id="Un7Jyg0JT3fOC_ovDJ1f-9" value="贴图" style="text;html=1;strokeColor=none;fillColor=none;align=center;verticalAlign=middle;whiteSpace=wrap;rounded=0;fontColor=#FF8000;" vertex="1" parent="1">
          <mxGeometry x="151" y="190" width="60" height="30" as="geometry" />
        </mxCell>
        <mxCell id="Un7Jyg0JT3fOC_ovDJ1f-11" value="" style="rounded=0;whiteSpace=wrap;html=1;strokeColor=#B3B3B3;" vertex="1" parent="1">
          <mxGeometry x="270" y="80" width="340" height="290" as="geometry" />
        </mxCell>
        <mxCell id="Un7Jyg0JT3fOC_ovDJ1f-12" value="" style="rounded=0;whiteSpace=wrap;html=1;shadow=0;glass=0;fillColor=#fff2cc;strokeColor=#d6b656;rotation=90;" vertex="1" parent="1">
          <mxGeometry x="345" y="144" width="190" height="100" as="geometry" />
        </mxCell>
        <mxCell id="Un7Jyg0JT3fOC_ovDJ1f-13" value="" style="shape=curlyBracket;whiteSpace=wrap;html=1;rounded=1;flipH=1;labelPosition=right;verticalLabelPosition=middle;align=left;verticalAlign=middle;" vertex="1" parent="1">
          <mxGeometry x="500" y="102" width="20" height="180" as="geometry" />
        </mxCell>
        <mxCell id="Un7Jyg0JT3fOC_ovDJ1f-14" value="高" style="text;html=1;strokeColor=none;fillColor=none;align=center;verticalAlign=middle;whiteSpace=wrap;rounded=0;fontColor=#FF8000;" vertex="1" parent="1">
          <mxGeometry x="500" y="177" width="60" height="30" as="geometry" />
        </mxCell>
        <mxCell id="Un7Jyg0JT3fOC_ovDJ1f-15" value="" style="shape=curlyBracket;whiteSpace=wrap;html=1;rounded=1;flipH=1;labelPosition=right;verticalLabelPosition=middle;align=left;verticalAlign=middle;rotation=90;fontColor=#FF8000;" vertex="1" parent="1">
          <mxGeometry x="430" y="260" width="20" height="100" as="geometry" />
        </mxCell>
        <mxCell id="Un7Jyg0JT3fOC_ovDJ1f-16" value="宽" style="text;html=1;strokeColor=none;fillColor=none;align=center;verticalAlign=middle;whiteSpace=wrap;rounded=0;fontColor=#FF8000;" vertex="1" parent="1">
          <mxGeometry x="410" y="320" width="60" height="30" as="geometry" />
        </mxCell>
        <mxCell id="Un7Jyg0JT3fOC_ovDJ1f-17" value="" style="shape=curlyBracket;whiteSpace=wrap;html=1;rounded=1;flipH=1;labelPosition=right;verticalLabelPosition=middle;align=left;verticalAlign=middle;rotation=90;" vertex="1" parent="1">
          <mxGeometry x="365" y="480" width="20" height="190" as="geometry" />
        </mxCell>
        <mxCell id="Un7Jyg0JT3fOC_ovDJ1f-18" value="高" style="text;html=1;strokeColor=none;fillColor=none;align=center;verticalAlign=middle;whiteSpace=wrap;rounded=0;fontColor=#FF8000;" vertex="1" parent="1">
          <mxGeometry x="345" y="580" width="60" height="30" as="geometry" />
        </mxCell>
        <mxCell id="Un7Jyg0JT3fOC_ovDJ1f-19" value="" style="shape=curlyBracket;whiteSpace=wrap;html=1;rounded=1;flipH=1;labelPosition=right;verticalLabelPosition=middle;align=left;verticalAlign=middle;" vertex="1" parent="1">
          <mxGeometry x="475" y="455" width="20" height="100" as="geometry" />
        </mxCell>
        <mxCell id="Un7Jyg0JT3fOC_ovDJ1f-20" value="宽" style="text;html=1;strokeColor=none;fillColor=none;align=center;verticalAlign=middle;whiteSpace=wrap;rounded=0;fontColor=#FF8000;" vertex="1" parent="1">
          <mxGeometry x="475" y="490" width="60" height="30" as="geometry" />
        </mxCell>
        <mxCell id="Un7Jyg0JT3fOC_ovDJ1f-21" value="" style="shape=curlyBracket;whiteSpace=wrap;html=1;rounded=1;flipH=1;labelPosition=right;verticalLabelPosition=middle;align=left;verticalAlign=middle;rotation=-180;" vertex="1" parent="1">
          <mxGeometry x="100" y="121.5" width="20" height="145" as="geometry" />
        </mxCell>
        <mxCell id="Un7Jyg0JT3fOC_ovDJ1f-22" value="高" style="text;html=1;strokeColor=none;fillColor=none;align=center;verticalAlign=middle;whiteSpace=wrap;rounded=0;fontColor=#FF8000;" vertex="1" parent="1">
          <mxGeometry x="60" y="177" width="60" height="30" as="geometry" />
        </mxCell>
        <mxCell id="Un7Jyg0JT3fOC_ovDJ1f-23" value="" style="shape=curlyBracket;whiteSpace=wrap;html=1;rounded=1;flipH=1;labelPosition=right;verticalLabelPosition=middle;align=left;verticalAlign=middle;rotation=90;fontColor=#FF8000;" vertex="1" parent="1">
          <mxGeometry x="171" y="230" width="20" height="100" as="geometry" />
        </mxCell>
        <mxCell id="Un7Jyg0JT3fOC_ovDJ1f-26" value="宽" style="text;html=1;strokeColor=none;fillColor=none;align=center;verticalAlign=middle;whiteSpace=wrap;rounded=0;fontColor=#FF8000;" vertex="1" parent="1">
          <mxGeometry x="150" y="295" width="60" height="30" as="geometry" />
        </mxCell>
        <mxCell id="Un7Jyg0JT3fOC_ovDJ1f-27" value="" style="rounded=0;whiteSpace=wrap;html=1;strokeColor=#999999;" vertex="1" parent="1">
          <mxGeometry x="270" y="990" width="340" height="210" as="geometry" />
        </mxCell>
        <mxCell id="Un7Jyg0JT3fOC_ovDJ1f-28" value="" style="rounded=0;whiteSpace=wrap;html=1;shadow=0;glass=0;fillColor=#fff2cc;strokeColor=#d6b656;" vertex="1" parent="1">
          <mxGeometry x="345" y="1000" width="190" height="100" as="geometry" />
        </mxCell>
        <mxCell id="Un7Jyg0JT3fOC_ovDJ1f-30" value="贴图" style="text;html=1;strokeColor=none;fillColor=none;align=center;verticalAlign=middle;whiteSpace=wrap;rounded=0;fontColor=#FF8000;" vertex="1" parent="1">
          <mxGeometry x="127" y="769" width="60" height="30" as="geometry" />
        </mxCell>
        <mxCell id="Un7Jyg0JT3fOC_ovDJ1f-31" value="" style="rounded=0;whiteSpace=wrap;html=1;strokeColor=#B3B3B3;" vertex="1" parent="1">
          <mxGeometry x="270" y="670" width="340" height="290" as="geometry" />
        </mxCell>
        <mxCell id="Un7Jyg0JT3fOC_ovDJ1f-32" value="" style="rounded=0;whiteSpace=wrap;html=1;shadow=0;glass=0;fillColor=#fff2cc;strokeColor=#d6b656;rotation=90;" vertex="1" parent="1">
          <mxGeometry x="345" y="734" width="190" height="100" as="geometry" />
        </mxCell>
        <mxCell id="Un7Jyg0JT3fOC_ovDJ1f-33" value="" style="shape=curlyBracket;whiteSpace=wrap;html=1;rounded=1;flipH=1;labelPosition=right;verticalLabelPosition=middle;align=left;verticalAlign=middle;" vertex="1" parent="1">
          <mxGeometry x="500" y="692" width="20" height="180" as="geometry" />
        </mxCell>
        <mxCell id="Un7Jyg0JT3fOC_ovDJ1f-34" value="纵轴" style="text;html=1;strokeColor=none;fillColor=none;align=center;verticalAlign=middle;whiteSpace=wrap;rounded=0;fontColor=#FF8000;" vertex="1" parent="1">
          <mxGeometry x="500" y="767" width="60" height="30" as="geometry" />
        </mxCell>
        <mxCell id="Un7Jyg0JT3fOC_ovDJ1f-35" value="" style="shape=curlyBracket;whiteSpace=wrap;html=1;rounded=1;flipH=1;labelPosition=right;verticalLabelPosition=middle;align=left;verticalAlign=middle;rotation=90;fontColor=#FF8000;" vertex="1" parent="1">
          <mxGeometry x="430" y="850" width="20" height="100" as="geometry" />
        </mxCell>
        <mxCell id="Un7Jyg0JT3fOC_ovDJ1f-36" value="横轴" style="text;html=1;strokeColor=none;fillColor=none;align=center;verticalAlign=middle;whiteSpace=wrap;rounded=0;fontColor=#FF8000;" vertex="1" parent="1">
          <mxGeometry x="410" y="910" width="60" height="30" as="geometry" />
        </mxCell>
        <mxCell id="Un7Jyg0JT3fOC_ovDJ1f-37" value="" style="shape=curlyBracket;whiteSpace=wrap;html=1;rounded=1;flipH=1;labelPosition=right;verticalLabelPosition=middle;align=left;verticalAlign=middle;rotation=90;" vertex="1" parent="1">
          <mxGeometry x="430" y="1025" width="20" height="190" as="geometry" />
        </mxCell>
        <mxCell id="Un7Jyg0JT3fOC_ovDJ1f-38" value="横轴" style="text;html=1;strokeColor=none;fillColor=none;align=center;verticalAlign=middle;whiteSpace=wrap;rounded=0;fontColor=#FF8000;" vertex="1" parent="1">
          <mxGeometry x="410" y="1125" width="60" height="30" as="geometry" />
        </mxCell>
        <mxCell id="Un7Jyg0JT3fOC_ovDJ1f-39" value="" style="shape=curlyBracket;whiteSpace=wrap;html=1;rounded=1;flipH=1;labelPosition=right;verticalLabelPosition=middle;align=left;verticalAlign=middle;" vertex="1" parent="1">
          <mxGeometry x="540" y="1000" width="20" height="100" as="geometry" />
        </mxCell>
        <mxCell id="Un7Jyg0JT3fOC_ovDJ1f-40" value="纵轴" style="text;html=1;strokeColor=none;fillColor=none;align=center;verticalAlign=middle;whiteSpace=wrap;rounded=0;fontColor=#FF8000;" vertex="1" parent="1">
          <mxGeometry x="540" y="1035" width="60" height="30" as="geometry" />
        </mxCell>
        <mxCell id="Un7Jyg0JT3fOC_ovDJ1f-41" value="" style="shape=curlyBracket;whiteSpace=wrap;html=1;rounded=1;flipH=1;labelPosition=right;verticalLabelPosition=middle;align=left;verticalAlign=middle;rotation=-180;" vertex="1" parent="1">
          <mxGeometry x="40" y="740" width="20" height="88.5" as="geometry" />
        </mxCell>
        <mxCell id="Un7Jyg0JT3fOC_ovDJ1f-42" value="高" style="text;html=1;strokeColor=none;fillColor=none;align=center;verticalAlign=middle;whiteSpace=wrap;rounded=0;fontColor=#FF8000;" vertex="1" parent="1">
          <mxGeometry y="769" width="60" height="30" as="geometry" />
        </mxCell>
        <mxCell id="Un7Jyg0JT3fOC_ovDJ1f-43" value="" style="shape=curlyBracket;whiteSpace=wrap;html=1;rounded=1;flipH=1;labelPosition=right;verticalLabelPosition=middle;align=left;verticalAlign=middle;rotation=90;fontColor=#FF8000;" vertex="1" parent="1">
          <mxGeometry x="147" y="767" width="20" height="160" as="geometry" />
        </mxCell>
        <mxCell id="Un7Jyg0JT3fOC_ovDJ1f-44" value="宽" style="text;html=1;strokeColor=none;fillColor=none;align=center;verticalAlign=middle;whiteSpace=wrap;rounded=0;fontColor=#FF8000;" vertex="1" parent="1">
          <mxGeometry x="127" y="856.5" width="60" height="30" as="geometry" />
        </mxCell>
        <mxCell id="Un7Jyg0JT3fOC_ovDJ1f-48" value="" style="rounded=0;whiteSpace=wrap;html=1;strokeColor=#999999;" vertex="1" parent="1">
          <mxGeometry x="250" y="1650" width="340" height="260" as="geometry" />
        </mxCell>
        <mxCell id="Un7Jyg0JT3fOC_ovDJ1f-49" value="" style="rounded=0;whiteSpace=wrap;html=1;shadow=0;glass=0;fillColor=#fff2cc;strokeColor=#d6b656;" vertex="1" parent="1">
          <mxGeometry x="337.5" y="1660" width="165" height="170" as="geometry" />
        </mxCell>
        <mxCell id="Un7Jyg0JT3fOC_ovDJ1f-50" value="" style="shape=image;verticalLabelPosition=bottom;labelBackgroundColor=default;verticalAlign=top;aspect=fixed;imageAspect=0;image=data:image/png,iVBORw0KGgoAAAANSUhEUgAAAGYAAACQCAYAAAD6FB5mAAAAAXNSR0IArs4c6QAADgBJREFUeF7tXW1sXXUZf/7nnHtebu/armu7tZ0UNrZgmDBBMSpQamIkjK2Io42YaEiMiZBg9ItRDAyiicQPJkYSoh8UEqMbDLIx5QOJ3aaGRAgypwKDvZTSbqNrt7a397yfv/mfc899673tbe9z713Sp8lNb7dzfud/fr/zvP3OPS2DMl8HDhyQxT8PDw/75f6f/q3+DLDCQ/zpyOgOyWd3MMb6OQDnPLCDoP6LWMtHkBU2Bz6fgETLseFdt12IucgJ88Lhow8HHH4EwDYAcJ8xpnLO1bVMWoPO3QPGMgz4JHDl0eGh218Txw2FOfDyX2/lknw4qWv6zpu2Z3o3tvdKjEkNWtiaPozjeMHYxKWZd06d1WzHvShJ0lf23nvHmUiYQ0e/y4H/8rZbd0xf29fZu6aZatLJnx2fuvjG2/9LAWePjAwNPBcKs//Q6E8A2FNDd9/ONVWmSGmCOLbrB4de/TsHzh4buW/g6UiYV44+CgH7xRc/d/Nc38a2ziasa00fkgPA2OTM7D/fPKlIEnv4gd0Dz0ep7JXjt0EQHEytS2V23rhV13W909AVXVcVKeBhf7amiUM/ecZAYgwsxwvm5k1nLr3gv3NqzDVNa5xB8MDw0JfeC4UZHR1VptPytwMe/FqWFVtRJG3b1msvXd/fvfHt/7wPpuWgr20tAxq6Cjt3bIMPxj6+eOr9c52u5wIP+Ekms0f27rrzdcYYL5pjXjhy7AuBD98DxvfcsH3L9A1bevpef/O/sJCx1jKP6OfektTh85+5Ed49c37i3ffOtHLGHzfXwbMPDQ7miC4SJmoEjg4Cg/03bN/ikDDomoSARcKcOqMCh5GRobtGC49GwtSH+yVRSZgmkF7NIUmYalhqwjYkTBNIr+aQjRWGsch4q/MXX+1MdRWtryHC6LoOLS0p0LQEKLIEslRfeVzPh0zGhrn5OfA8b8nLQJYVSK1LgaHr4doURarrxSNukZi2DfPzaTBNs+La6i6Mriehp7cPkoYGuqpAIiGDqsihZy3kEX5B/F2sMpaMA4eVxFcOh3NwvQAypgvTV67A+ckJ8P3y9/JkWYau7h5oa2sFXVNASyigJuTwwilcV+n6Io9jdevz/QBM24N0xoLx8XHIZBbKilN3YTZfswWShh6esHhpCTm8KoXdUHrylS6feLtqMqBIY44bgO36YNkeTE5OwOzs5bK7tra2Q9fGnty64jVKkrhAxPoi8pc7frXnIRYRCuP44Dg+zKUXYOzc6cYLk0gkYPM1W0MhhCDxiccRE0dI4YkvR0J0reYjq/SsQmG8AGzHB9v2YObKLFw4P1725Ddu6oNUqhVUNX/RiDVKBam2UlRXs85yB/X8aG2WWJ/jwbmzH4DrLraz6hoxmmZA7+Z+SChSmL40Vc6lMsYqE1x60ishIRcx2ROfnU/DxEfnygrT09cPyWQyt7Z8xERJtNIFU8v6RMRYtg+WGwnz4dhZsO3FtaYBwlwDCSV/RYoaI36OL0qRLqLEIYjIv6+c1vK5vZxgRRHjeDA7Nw8TH42Vhevt6wdDCBOmWAnUbI0REVNY6wrXV5jiyoEW1sZ8isuvOY6YMGpcDz481zRhshFTkMpEBC1VY8oV3mr7uNIaM7dExBQLk0+1+RpT3KDEQtSyPiGMiBhH1MDmRkx/2RpTmMpWkqqWawCEMKIrE4VfpIu5ucqprJIwhV1ZXNNW24WVrjcfMV7YoIw1L2Lyqayo+IuOJ+zMitvO+Hbb4hwfd0hLt6mxMGZ4VVaRyoxsKss2AIvb5XLrq7yGcm1+4YVXXPx9+HDsTHNqTE+2+Jd2ZSJi8ldj5S5ruS6sbFcWt8thjUnDZIXiH0dM0dqyXVm+xkRHKE2lq43yohpzNaay+EwLT3i1J1soTq7421HXs1RXlktl2Y4xjujYmail+6qUcsOuLOwYm1ljdAN6e7OprCBVxF1Z5bRVvuguV1/C6MrNMV5YZOfmq+jKSoSJ55jCib+wxlQzd1W6yPKpzAvFaU67rBvQ09sPatiKFg6YYrQub7jUGjWFXVkYMVUU/3wqi1rmUmEwo7p0wGyOMJoBosaoihTOLnrBgFlvr0xEi11N8c8OmGL6jwWqt1cmUpl4ieakiV1Z8RzTaK9sqTkmN/lnPbxGe2VX5RxTWPyrydlFBX4FXtmyloxol5volTUtlV3NXlmlriy2ZMgrI69sUcPZABOTvLJC1hvilW29rt/b+omunrdOnoKMaS9SXdN06N7UF96yjTozcYcwe/s2Z8fEE0LhVFPNxFJ+G9Eue/H9GM+H+fQCXDz/UdmNxdoMw8h1jaL4hwZraH0Xm0KrvaNaemAxYAoDU7yEVzY5MQ62vfhTrOKO7y2f2g6nx6fOnz47piz7gT/x7KWkb7rP58FvGWPtxeNItR7w6olfG3vGF2n4WX3OA77AJfhxq9L3m3vu2ZaLgCK2Dxw+PgAQPMMkuaO7q7NLTciKIsthZyNLspgb6asGBsSTE54XRZT47nqBd2nm8mnfdTpAgp+O7L7rVzF8juqDB0c3ewo7rqiq1t3VbbSmWtYbRgKSugri0+maqoSOMX2tnoHoDqcHGcsOn6DImA6kLXti5tL0lGNlrgOJPTiye+AvOWNVpDCmd/+eg3R/2/oNs23rWnp0XYUWIxKFhFm9GIV7+kEAluVCxnLAzH63LAcWTPvklZmPe4DzE13rgrsHBwe9MAReOvKPHZ7vvqqoBmtb39GT1BNSMiuKiBjxXvhMFDG1CVQsTBQxlu3CguUG87OXz3iOaSQkedf9u+84kX2i7NiDEMCzydYNC0ld3SQiRHQOlMpqE6Jc1yaEiCImGzWmSGsumLZzwZyfSTIefGf4vsH9kTCHjv6AA/t5qr2LGZqixHXFMKJ0pmtUYzAkCiNG1BjTilKZ6YIZ1hsXTMfxzPlpDzj//sjQ4LOhMPsPjT4BwPa1tHVCUlNBCEKpDEOKYozSVJaPGidsCKz0jA+MPTayJ/vU8h9fHt0nSeyJVGtXmL4MrTiVibQmBjSqMbWJFQsTdmRhV5aPGPGzlZ4Ww+++kaGBJ8OIiYVpae2CpJ6IokXUGPE+15UlaI6pTReIhMm3y1E6y6YyUXPS0xAE/Mmvf3VwX4kwnaEohTUmfG9o4YeyaYypTZmoxrhgmnHERA1AHEEiYioLEwqRTWVFEUPtcm2yQBgxsRCRGEKkKGLC1nmhgjCpti4wtGwqywpEXVmtcuT3j7syIUY8ZAqBFrLiLB0x8WApvodNAA2YWNJElkz5OSYu/lXUGBowsQSJccp5ZabtgBl2Zy6Y6UuVaky+KyOvDFuWqMaU88pEfVkyYlKtnZFpSQMmviriibMiYfJe2bLCtLR25lpl8srwtUGqMVHkUFeGJ9BSXtnyxZ9SGZ4SJUhLe2WRJVO2KyOvrG6ahMDVeGUV2mXyyuopDXll9WS3Bmzyymogr567kldWT3ZrwCavrAby6rkr0hxDXhm2SOSVYTOKhEdeGRKR2DDklWEzioSHVGPIK0PSIwdDXhk2o0h45JUhEYkNQ14ZNqNIeOSVIRGJDUNeGTajSHjklSERiQ1DXhk2o0h4SHMMeWVIeuTnmDLPYNLnyrBZXgUeeWWrIK0Ru5BX1giWV3EMpBpDXtkquF9yF/LKsBlFwiOvDIlIbBjyyrAZRcIjrwyJSGwY8sqwGUXCI68MiUhsGPLKsBlFwkOaY8grQ9KDvDJsIrHxyCvDZhQJj7wyJCKxYZBqDHll6MIs8fvK6BlMbLZXgEde2QrIauSm5JU1ku0VHIu8shWQ1chNyStrJNsrOBZ5ZSsgq5GbklfWSLZXcCykOYa8shVwXtWm9AxmVTQ1fiPyyhrPeVVHJK+sKpoavxFSjSGvDFs6+lwZNqNIeOSVIRGJDUNeGTajSHjklSERiQ1DXhk2o0h45JUhEYkNQ14ZNqNIeEhzDHllSHrkYMgrw2YUCY+8MiQisWHIK8NmFAkPqcaQV4akR77G0OfKsCnFwSOvDIdHdBTyytApxQEkrwyHR3QU8srQKcUBJK8Mh0d0FPLK0CnFAUSaY8grw5Ejj0JeGTajSHjklSERiQ1DXhk2o0h4SDWGvDIkPcgrwyYSG4+8MmxGkfDIK0MiEhuGvDJsRpHwyCtDIhIbhrwybEaR8MgrQyISG2bVc0yqvZsbmsKS4k/H6+SV1UcYDzKWDablQMZ0IP7d/pbj8czcFCv66+T7Dx/7IXD+s1THJttQpGTSUEHXVWgxhEDRS1MVYIxhr3VN4S3llVlekMlcuagBY4+N7Bl4OmR6/6Fj3wLGn0mu63y/RVd3GoYKQhwhiIge8V5NkDC1XkVLemW2+7aVvrQNOHtkZGjguVCYFw8d+7QP/IiiqpfXd3Rfb6iKljQoldUqROn+FWuM7dtzV6Y+8FxnvQzs3r1DA/8KheGcSwcOH3+eMdjV2r7hnfbWdZ819IQiIkekM12jVIYhUvlnMF1vPj3/xvzszCc5hz8P77nzm4yxIFc0/nDktS0JP/Eik5WO9R0bJjs72m9JGgmNUhmGJBHG4lTm2pevzL51+fJML/e9GVd2937j3i+fEdsWVfOXXvnbzV7g/w4Yu07XjYnujd1uV2f79vaUYWiqzKj41yZSVhg+m7bNqenZU1NTFxO2ZfUB52cVSX7o/t13nIiPsKjNEpGj+OpTAHwQGLQBBx0A5NqWRHuXMOADAws4zAKwUU92Ho8jpaIwcc05ePj4zT7ATcBgU+AHBlGLx4AkSyZwuCAD/Ptre+48IWpKKToNJnh8oyL9H/M+qb095frIAAAAAElFTkSuQmCC;" vertex="1" parent="1">
          <mxGeometry x="110" y="1370" width="102" height="144" as="geometry" />
        </mxCell>
        <mxCell id="Un7Jyg0JT3fOC_ovDJ1f-51" value="贴图" style="text;html=1;strokeColor=none;fillColor=none;align=center;verticalAlign=middle;whiteSpace=wrap;rounded=0;fontColor=#FF8000;" vertex="1" parent="1">
          <mxGeometry x="131" y="1440" width="60" height="30" as="geometry" />
        </mxCell>
        <mxCell id="Un7Jyg0JT3fOC_ovDJ1f-52" value="" style="rounded=0;whiteSpace=wrap;html=1;strokeColor=#B3B3B3;" vertex="1" parent="1">
          <mxGeometry x="250" y="1330" width="340" height="290" as="geometry" />
        </mxCell>
        <mxCell id="Un7Jyg0JT3fOC_ovDJ1f-53" value="" style="rounded=0;whiteSpace=wrap;html=1;shadow=0;glass=0;fillColor=#fff2cc;strokeColor=#d6b656;rotation=90;" vertex="1" parent="1">
          <mxGeometry x="315" y="1392" width="210" height="100" as="geometry" />
        </mxCell>
        <mxCell id="Un7Jyg0JT3fOC_ovDJ1f-54" value="" style="shape=curlyBracket;whiteSpace=wrap;html=1;rounded=1;flipH=1;labelPosition=right;verticalLabelPosition=middle;align=left;verticalAlign=middle;" vertex="1" parent="1">
          <mxGeometry x="480" y="1352" width="20" height="180" as="geometry" />
        </mxCell>
        <mxCell id="Un7Jyg0JT3fOC_ovDJ1f-55" value="高 100" style="text;html=1;strokeColor=none;fillColor=none;align=center;verticalAlign=middle;whiteSpace=wrap;rounded=0;fontColor=#FF8000;" vertex="1" parent="1">
          <mxGeometry x="490" y="1427" width="60" height="30" as="geometry" />
        </mxCell>
        <mxCell id="Un7Jyg0JT3fOC_ovDJ1f-56" value="" style="shape=curlyBracket;whiteSpace=wrap;html=1;rounded=1;flipH=1;labelPosition=right;verticalLabelPosition=middle;align=left;verticalAlign=middle;rotation=90;fontColor=#FF8000;" vertex="1" parent="1">
          <mxGeometry x="410" y="1513" width="20" height="100" as="geometry" />
        </mxCell>
        <mxCell id="Un7Jyg0JT3fOC_ovDJ1f-57" value="宽 210" style="text;html=1;strokeColor=none;fillColor=none;align=center;verticalAlign=middle;whiteSpace=wrap;rounded=0;fontColor=#FF8000;" vertex="1" parent="1">
          <mxGeometry x="390" y="1570" width="60" height="30" as="geometry" />
        </mxCell>
        <mxCell id="Un7Jyg0JT3fOC_ovDJ1f-58" value="" style="shape=curlyBracket;whiteSpace=wrap;html=1;rounded=1;flipH=1;labelPosition=right;verticalLabelPosition=middle;align=left;verticalAlign=middle;rotation=90;" vertex="1" parent="1">
          <mxGeometry x="410" y="1766" width="20" height="166" as="geometry" />
        </mxCell>
        <mxCell id="Un7Jyg0JT3fOC_ovDJ1f-60" value="" style="shape=curlyBracket;whiteSpace=wrap;html=1;rounded=1;flipH=1;labelPosition=right;verticalLabelPosition=middle;align=left;verticalAlign=middle;" vertex="1" parent="1">
          <mxGeometry x="520" y="1660" width="20" height="170" as="geometry" />
        </mxCell>
        <mxCell id="Un7Jyg0JT3fOC_ovDJ1f-61" value="高 170" style="text;html=1;strokeColor=none;fillColor=none;align=center;verticalAlign=middle;whiteSpace=wrap;rounded=0;fontColor=#FF8000;" vertex="1" parent="1">
          <mxGeometry x="535" y="1731" width="60" height="30" as="geometry" />
        </mxCell>
        <mxCell id="Un7Jyg0JT3fOC_ovDJ1f-62" value="" style="shape=curlyBracket;whiteSpace=wrap;html=1;rounded=1;flipH=1;labelPosition=right;verticalLabelPosition=middle;align=left;verticalAlign=middle;rotation=-180;" vertex="1" parent="1">
          <mxGeometry x="80" y="1371.5" width="20" height="145" as="geometry" />
        </mxCell>
        <mxCell id="Un7Jyg0JT3fOC_ovDJ1f-63" value="高" style="text;html=1;strokeColor=none;fillColor=none;align=center;verticalAlign=middle;whiteSpace=wrap;rounded=0;fontColor=#FF8000;" vertex="1" parent="1">
          <mxGeometry x="40" y="1427" width="60" height="30" as="geometry" />
        </mxCell>
        <mxCell id="Un7Jyg0JT3fOC_ovDJ1f-64" value="" style="shape=curlyBracket;whiteSpace=wrap;html=1;rounded=1;flipH=1;labelPosition=right;verticalLabelPosition=middle;align=left;verticalAlign=middle;rotation=90;fontColor=#FF8000;" vertex="1" parent="1">
          <mxGeometry x="151" y="1480" width="20" height="100" as="geometry" />
        </mxCell>
        <mxCell id="Un7Jyg0JT3fOC_ovDJ1f-65" value="宽" style="text;html=1;strokeColor=none;fillColor=none;align=center;verticalAlign=middle;whiteSpace=wrap;rounded=0;fontColor=#FF8000;" vertex="1" parent="1">
          <mxGeometry x="130" y="1545" width="60" height="30" as="geometry" />
        </mxCell>
        <mxCell id="Un7Jyg0JT3fOC_ovDJ1f-67" value="" style="shape=image;verticalLabelPosition=bottom;labelBackgroundColor=default;verticalAlign=top;aspect=fixed;imageAspect=0;image=data:image/png,iVBORw0KGgoAAAANSUhEUgAAAGYAAACQCAYAAAD6FB5mAAAAAXNSR0IArs4c6QAADgBJREFUeF7tXW1sXXUZf/7nnHtebu/armu7tZ0UNrZgmDBBMSpQamIkjK2Io42YaEiMiZBg9ItRDAyiicQPJkYSoh8UEqMbDLIx5QOJ3aaGRAgypwKDvZTSbqNrt7a397yfv/mfc899673tbe9z713Sp8lNb7dzfud/fr/zvP3OPS2DMl8HDhyQxT8PDw/75f6f/q3+DLDCQ/zpyOgOyWd3MMb6OQDnPLCDoP6LWMtHkBU2Bz6fgETLseFdt12IucgJ88Lhow8HHH4EwDYAcJ8xpnLO1bVMWoPO3QPGMgz4JHDl0eGh218Txw2FOfDyX2/lknw4qWv6zpu2Z3o3tvdKjEkNWtiaPozjeMHYxKWZd06d1WzHvShJ0lf23nvHmUiYQ0e/y4H/8rZbd0xf29fZu6aZatLJnx2fuvjG2/9LAWePjAwNPBcKs//Q6E8A2FNDd9/ONVWmSGmCOLbrB4de/TsHzh4buW/g6UiYV44+CgH7xRc/d/Nc38a2ziasa00fkgPA2OTM7D/fPKlIEnv4gd0Dz0ep7JXjt0EQHEytS2V23rhV13W909AVXVcVKeBhf7amiUM/ecZAYgwsxwvm5k1nLr3gv3NqzDVNa5xB8MDw0JfeC4UZHR1VptPytwMe/FqWFVtRJG3b1msvXd/fvfHt/7wPpuWgr20tAxq6Cjt3bIMPxj6+eOr9c52u5wIP+Ekms0f27rrzdcYYL5pjXjhy7AuBD98DxvfcsH3L9A1bevpef/O/sJCx1jKP6OfektTh85+5Ed49c37i3ffOtHLGHzfXwbMPDQ7miC4SJmoEjg4Cg/03bN/ikDDomoSARcKcOqMCh5GRobtGC49GwtSH+yVRSZgmkF7NIUmYalhqwjYkTBNIr+aQjRWGsch4q/MXX+1MdRWtryHC6LoOLS0p0LQEKLIEslRfeVzPh0zGhrn5OfA8b8nLQJYVSK1LgaHr4doURarrxSNukZi2DfPzaTBNs+La6i6Mriehp7cPkoYGuqpAIiGDqsihZy3kEX5B/F2sMpaMA4eVxFcOh3NwvQAypgvTV67A+ckJ8P3y9/JkWYau7h5oa2sFXVNASyigJuTwwilcV+n6Io9jdevz/QBM24N0xoLx8XHIZBbKilN3YTZfswWShh6esHhpCTm8KoXdUHrylS6feLtqMqBIY44bgO36YNkeTE5OwOzs5bK7tra2Q9fGnty64jVKkrhAxPoi8pc7frXnIRYRCuP44Dg+zKUXYOzc6cYLk0gkYPM1W0MhhCDxiccRE0dI4YkvR0J0reYjq/SsQmG8AGzHB9v2YObKLFw4P1725Ddu6oNUqhVUNX/RiDVKBam2UlRXs85yB/X8aG2WWJ/jwbmzH4DrLraz6hoxmmZA7+Z+SChSmL40Vc6lMsYqE1x60ishIRcx2ROfnU/DxEfnygrT09cPyWQyt7Z8xERJtNIFU8v6RMRYtg+WGwnz4dhZsO3FtaYBwlwDCSV/RYoaI36OL0qRLqLEIYjIv6+c1vK5vZxgRRHjeDA7Nw8TH42Vhevt6wdDCBOmWAnUbI0REVNY6wrXV5jiyoEW1sZ8isuvOY6YMGpcDz481zRhshFTkMpEBC1VY8oV3mr7uNIaM7dExBQLk0+1+RpT3KDEQtSyPiGMiBhH1MDmRkx/2RpTmMpWkqqWawCEMKIrE4VfpIu5ucqprJIwhV1ZXNNW24WVrjcfMV7YoIw1L2Lyqayo+IuOJ+zMitvO+Hbb4hwfd0hLt6mxMGZ4VVaRyoxsKss2AIvb5XLrq7yGcm1+4YVXXPx9+HDsTHNqTE+2+Jd2ZSJi8ldj5S5ruS6sbFcWt8thjUnDZIXiH0dM0dqyXVm+xkRHKE2lq43yohpzNaay+EwLT3i1J1soTq7421HXs1RXlktl2Y4xjujYmail+6qUcsOuLOwYm1ljdAN6e7OprCBVxF1Z5bRVvuguV1/C6MrNMV5YZOfmq+jKSoSJ55jCib+wxlQzd1W6yPKpzAvFaU67rBvQ09sPatiKFg6YYrQub7jUGjWFXVkYMVUU/3wqi1rmUmEwo7p0wGyOMJoBosaoihTOLnrBgFlvr0xEi11N8c8OmGL6jwWqt1cmUpl4ieakiV1Z8RzTaK9sqTkmN/lnPbxGe2VX5RxTWPyrydlFBX4FXtmyloxol5volTUtlV3NXlmlriy2ZMgrI69sUcPZABOTvLJC1hvilW29rt/b+omunrdOnoKMaS9SXdN06N7UF96yjTozcYcwe/s2Z8fEE0LhVFPNxFJ+G9Eue/H9GM+H+fQCXDz/UdmNxdoMw8h1jaL4hwZraH0Xm0KrvaNaemAxYAoDU7yEVzY5MQ62vfhTrOKO7y2f2g6nx6fOnz47piz7gT/x7KWkb7rP58FvGWPtxeNItR7w6olfG3vGF2n4WX3OA77AJfhxq9L3m3vu2ZaLgCK2Dxw+PgAQPMMkuaO7q7NLTciKIsthZyNLspgb6asGBsSTE54XRZT47nqBd2nm8mnfdTpAgp+O7L7rVzF8juqDB0c3ewo7rqiq1t3VbbSmWtYbRgKSugri0+maqoSOMX2tnoHoDqcHGcsOn6DImA6kLXti5tL0lGNlrgOJPTiye+AvOWNVpDCmd/+eg3R/2/oNs23rWnp0XYUWIxKFhFm9GIV7+kEAluVCxnLAzH63LAcWTPvklZmPe4DzE13rgrsHBwe9MAReOvKPHZ7vvqqoBmtb39GT1BNSMiuKiBjxXvhMFDG1CVQsTBQxlu3CguUG87OXz3iOaSQkedf9u+84kX2i7NiDEMCzydYNC0ld3SQiRHQOlMpqE6Jc1yaEiCImGzWmSGsumLZzwZyfSTIefGf4vsH9kTCHjv6AA/t5qr2LGZqixHXFMKJ0pmtUYzAkCiNG1BjTilKZ6YIZ1hsXTMfxzPlpDzj//sjQ4LOhMPsPjT4BwPa1tHVCUlNBCEKpDEOKYozSVJaPGidsCKz0jA+MPTayJ/vU8h9fHt0nSeyJVGtXmL4MrTiVibQmBjSqMbWJFQsTdmRhV5aPGPGzlZ4Ww+++kaGBJ8OIiYVpae2CpJ6IokXUGPE+15UlaI6pTReIhMm3y1E6y6YyUXPS0xAE/Mmvf3VwX4kwnaEohTUmfG9o4YeyaYypTZmoxrhgmnHERA1AHEEiYioLEwqRTWVFEUPtcm2yQBgxsRCRGEKkKGLC1nmhgjCpti4wtGwqywpEXVmtcuT3j7syIUY8ZAqBFrLiLB0x8WApvodNAA2YWNJElkz5OSYu/lXUGBowsQSJccp5ZabtgBl2Zy6Y6UuVaky+KyOvDFuWqMaU88pEfVkyYlKtnZFpSQMmviriibMiYfJe2bLCtLR25lpl8srwtUGqMVHkUFeGJ9BSXtnyxZ9SGZ4SJUhLe2WRJVO2KyOvrG6ahMDVeGUV2mXyyuopDXll9WS3Bmzyymogr567kldWT3ZrwCavrAby6rkr0hxDXhm2SOSVYTOKhEdeGRKR2DDklWEzioSHVGPIK0PSIwdDXhk2o0h45JUhEYkNQ14ZNqNIeOSVIRGJDUNeGTajSHjklSERiQ1DXhk2o0h4SHMMeWVIeuTnmDLPYNLnyrBZXgUeeWWrIK0Ru5BX1giWV3EMpBpDXtkquF9yF/LKsBlFwiOvDIlIbBjyyrAZRcIjrwyJSGwY8sqwGUXCI68MiUhsGPLKsBlFwkOaY8grQ9KDvDJsIrHxyCvDZhQJj7wyJCKxYZBqDHll6MIs8fvK6BlMbLZXgEde2QrIauSm5JU1ku0VHIu8shWQ1chNyStrJNsrOBZ5ZSsgq5GbklfWSLZXcCykOYa8shVwXtWm9AxmVTQ1fiPyyhrPeVVHJK+sKpoavxFSjSGvDFs6+lwZNqNIeOSVIRGJDUNeGTajSHjklSERiQ1DXhk2o0h45JUhEYkNQ14ZNqNIeEhzDHllSHrkYMgrw2YUCY+8MiQisWHIK8NmFAkPqcaQV4akR77G0OfKsCnFwSOvDIdHdBTyytApxQEkrwyHR3QU8srQKcUBJK8Mh0d0FPLK0CnFAUSaY8grw5Ejj0JeGTajSHjklSERiQ1DXhk2o0h4SDWGvDIkPcgrwyYSG4+8MmxGkfDIK0MiEhuGvDJsRpHwyCtDIhIbhrwybEaR8MgrQyISG2bVc0yqvZsbmsKS4k/H6+SV1UcYDzKWDablQMZ0IP7d/pbj8czcFCv66+T7Dx/7IXD+s1THJttQpGTSUEHXVWgxhEDRS1MVYIxhr3VN4S3llVlekMlcuagBY4+N7Bl4OmR6/6Fj3wLGn0mu63y/RVd3GoYKQhwhiIge8V5NkDC1XkVLemW2+7aVvrQNOHtkZGjguVCYFw8d+7QP/IiiqpfXd3Rfb6iKljQoldUqROn+FWuM7dtzV6Y+8FxnvQzs3r1DA/8KheGcSwcOH3+eMdjV2r7hnfbWdZ819IQiIkekM12jVIYhUvlnMF1vPj3/xvzszCc5hz8P77nzm4yxIFc0/nDktS0JP/Eik5WO9R0bJjs72m9JGgmNUhmGJBHG4lTm2pevzL51+fJML/e9GVd2937j3i+fEdsWVfOXXvnbzV7g/w4Yu07XjYnujd1uV2f79vaUYWiqzKj41yZSVhg+m7bNqenZU1NTFxO2ZfUB52cVSX7o/t13nIiPsKjNEpGj+OpTAHwQGLQBBx0A5NqWRHuXMOADAws4zAKwUU92Ho8jpaIwcc05ePj4zT7ATcBgU+AHBlGLx4AkSyZwuCAD/Ptre+48IWpKKToNJnh8oyL9H/M+qb095frIAAAAAElFTkSuQmCC;" vertex="1" parent="1">
          <mxGeometry x="369" y="1371.5" width="102" height="144" as="geometry" />
        </mxCell>
        <mxCell id="Un7Jyg0JT3fOC_ovDJ1f-68" value="宽 165" style="text;html=1;strokeColor=none;fillColor=none;align=center;verticalAlign=middle;whiteSpace=wrap;rounded=0;fontColor=#FF8000;" vertex="1" parent="1">
          <mxGeometry x="390" y="1860" width="60" height="30" as="geometry" />
        </mxCell>
        <mxCell id="Un7Jyg0JT3fOC_ovDJ1f-69" value="" style="shape=image;verticalLabelPosition=bottom;labelBackgroundColor=default;verticalAlign=top;aspect=fixed;imageAspect=0;image=data:image/png,iVBORw0KGgoAAAANSUhEUgAAAGYAAACQCAYAAAD6FB5mAAAAAXNSR0IArs4c6QAADgBJREFUeF7tXW1sXXUZf/7nnHtebu/armu7tZ0UNrZgmDBBMSpQamIkjK2Io42YaEiMiZBg9ItRDAyiicQPJkYSoh8UEqMbDLIx5QOJ3aaGRAgypwKDvZTSbqNrt7a397yfv/mfc899673tbe9z713Sp8lNb7dzfud/fr/zvP3OPS2DMl8HDhyQxT8PDw/75f6f/q3+DLDCQ/zpyOgOyWd3MMb6OQDnPLCDoP6LWMtHkBU2Bz6fgETLseFdt12IucgJ88Lhow8HHH4EwDYAcJ8xpnLO1bVMWoPO3QPGMgz4JHDl0eGh218Txw2FOfDyX2/lknw4qWv6zpu2Z3o3tvdKjEkNWtiaPozjeMHYxKWZd06d1WzHvShJ0lf23nvHmUiYQ0e/y4H/8rZbd0xf29fZu6aZatLJnx2fuvjG2/9LAWePjAwNPBcKs//Q6E8A2FNDd9/ONVWmSGmCOLbrB4de/TsHzh4buW/g6UiYV44+CgH7xRc/d/Nc38a2ziasa00fkgPA2OTM7D/fPKlIEnv4gd0Dz0ep7JXjt0EQHEytS2V23rhV13W909AVXVcVKeBhf7amiUM/ecZAYgwsxwvm5k1nLr3gv3NqzDVNa5xB8MDw0JfeC4UZHR1VptPytwMe/FqWFVtRJG3b1msvXd/fvfHt/7wPpuWgr20tAxq6Cjt3bIMPxj6+eOr9c52u5wIP+Ekms0f27rrzdcYYL5pjXjhy7AuBD98DxvfcsH3L9A1bevpef/O/sJCx1jKP6OfektTh85+5Ed49c37i3ffOtHLGHzfXwbMPDQ7miC4SJmoEjg4Cg/03bN/ikDDomoSARcKcOqMCh5GRobtGC49GwtSH+yVRSZgmkF7NIUmYalhqwjYkTBNIr+aQjRWGsch4q/MXX+1MdRWtryHC6LoOLS0p0LQEKLIEslRfeVzPh0zGhrn5OfA8b8nLQJYVSK1LgaHr4doURarrxSNukZi2DfPzaTBNs+La6i6Mriehp7cPkoYGuqpAIiGDqsihZy3kEX5B/F2sMpaMA4eVxFcOh3NwvQAypgvTV67A+ckJ8P3y9/JkWYau7h5oa2sFXVNASyigJuTwwilcV+n6Io9jdevz/QBM24N0xoLx8XHIZBbKilN3YTZfswWShh6esHhpCTm8KoXdUHrylS6feLtqMqBIY44bgO36YNkeTE5OwOzs5bK7tra2Q9fGnty64jVKkrhAxPoi8pc7frXnIRYRCuP44Dg+zKUXYOzc6cYLk0gkYPM1W0MhhCDxiccRE0dI4YkvR0J0reYjq/SsQmG8AGzHB9v2YObKLFw4P1725Ddu6oNUqhVUNX/RiDVKBam2UlRXs85yB/X8aG2WWJ/jwbmzH4DrLraz6hoxmmZA7+Z+SChSmL40Vc6lMsYqE1x60ishIRcx2ROfnU/DxEfnygrT09cPyWQyt7Z8xERJtNIFU8v6RMRYtg+WGwnz4dhZsO3FtaYBwlwDCSV/RYoaI36OL0qRLqLEIYjIv6+c1vK5vZxgRRHjeDA7Nw8TH42Vhevt6wdDCBOmWAnUbI0REVNY6wrXV5jiyoEW1sZ8isuvOY6YMGpcDz481zRhshFTkMpEBC1VY8oV3mr7uNIaM7dExBQLk0+1+RpT3KDEQtSyPiGMiBhH1MDmRkx/2RpTmMpWkqqWawCEMKIrE4VfpIu5ucqprJIwhV1ZXNNW24WVrjcfMV7YoIw1L2Lyqayo+IuOJ+zMitvO+Hbb4hwfd0hLt6mxMGZ4VVaRyoxsKss2AIvb5XLrq7yGcm1+4YVXXPx9+HDsTHNqTE+2+Jd2ZSJi8ldj5S5ruS6sbFcWt8thjUnDZIXiH0dM0dqyXVm+xkRHKE2lq43yohpzNaay+EwLT3i1J1soTq7421HXs1RXlktl2Y4xjujYmail+6qUcsOuLOwYm1ljdAN6e7OprCBVxF1Z5bRVvuguV1/C6MrNMV5YZOfmq+jKSoSJ55jCib+wxlQzd1W6yPKpzAvFaU67rBvQ09sPatiKFg6YYrQub7jUGjWFXVkYMVUU/3wqi1rmUmEwo7p0wGyOMJoBosaoihTOLnrBgFlvr0xEi11N8c8OmGL6jwWqt1cmUpl4ieakiV1Z8RzTaK9sqTkmN/lnPbxGe2VX5RxTWPyrydlFBX4FXtmyloxol5volTUtlV3NXlmlriy2ZMgrI69sUcPZABOTvLJC1hvilW29rt/b+omunrdOnoKMaS9SXdN06N7UF96yjTozcYcwe/s2Z8fEE0LhVFPNxFJ+G9Eue/H9GM+H+fQCXDz/UdmNxdoMw8h1jaL4hwZraH0Xm0KrvaNaemAxYAoDU7yEVzY5MQ62vfhTrOKO7y2f2g6nx6fOnz47piz7gT/x7KWkb7rP58FvGWPtxeNItR7w6olfG3vGF2n4WX3OA77AJfhxq9L3m3vu2ZaLgCK2Dxw+PgAQPMMkuaO7q7NLTciKIsthZyNLspgb6asGBsSTE54XRZT47nqBd2nm8mnfdTpAgp+O7L7rVzF8juqDB0c3ewo7rqiq1t3VbbSmWtYbRgKSugri0+maqoSOMX2tnoHoDqcHGcsOn6DImA6kLXti5tL0lGNlrgOJPTiye+AvOWNVpDCmd/+eg3R/2/oNs23rWnp0XYUWIxKFhFm9GIV7+kEAluVCxnLAzH63LAcWTPvklZmPe4DzE13rgrsHBwe9MAReOvKPHZ7vvqqoBmtb39GT1BNSMiuKiBjxXvhMFDG1CVQsTBQxlu3CguUG87OXz3iOaSQkedf9u+84kX2i7NiDEMCzydYNC0ld3SQiRHQOlMpqE6Jc1yaEiCImGzWmSGsumLZzwZyfSTIefGf4vsH9kTCHjv6AA/t5qr2LGZqixHXFMKJ0pmtUYzAkCiNG1BjTilKZ6YIZ1hsXTMfxzPlpDzj//sjQ4LOhMPsPjT4BwPa1tHVCUlNBCEKpDEOKYozSVJaPGidsCKz0jA+MPTayJ/vU8h9fHt0nSeyJVGtXmL4MrTiVibQmBjSqMbWJFQsTdmRhV5aPGPGzlZ4Ww+++kaGBJ8OIiYVpae2CpJ6IokXUGPE+15UlaI6pTReIhMm3y1E6y6YyUXPS0xAE/Mmvf3VwX4kwnaEohTUmfG9o4YeyaYypTZmoxrhgmnHERA1AHEEiYioLEwqRTWVFEUPtcm2yQBgxsRCRGEKkKGLC1nmhgjCpti4wtGwqywpEXVmtcuT3j7syIUY8ZAqBFrLiLB0x8WApvodNAA2YWNJElkz5OSYu/lXUGBowsQSJccp5ZabtgBl2Zy6Y6UuVaky+KyOvDFuWqMaU88pEfVkyYlKtnZFpSQMmviriibMiYfJe2bLCtLR25lpl8srwtUGqMVHkUFeGJ9BSXtnyxZ9SGZ4SJUhLe2WRJVO2KyOvrG6ahMDVeGUV2mXyyuopDXll9WS3Bmzyymogr567kldWT3ZrwCavrAby6rkr0hxDXhm2SOSVYTOKhEdeGRKR2DDklWEzioSHVGPIK0PSIwdDXhk2o0h45JUhEYkNQ14ZNqNIeOSVIRGJDUNeGTajSHjklSERiQ1DXhk2o0h4SHMMeWVIeuTnmDLPYNLnyrBZXgUeeWWrIK0Ru5BX1giWV3EMpBpDXtkquF9yF/LKsBlFwiOvDIlIbBjyyrAZRcIjrwyJSGwY8sqwGUXCI68MiUhsGPLKsBlFwkOaY8grQ9KDvDJsIrHxyCvDZhQJj7wyJCKxYZBqDHll6MIs8fvK6BlMbLZXgEde2QrIauSm5JU1ku0VHIu8shWQ1chNyStrJNsrOBZ5ZSsgq5GbklfWSLZXcCykOYa8shVwXtWm9AxmVTQ1fiPyyhrPeVVHJK+sKpoavxFSjSGvDFs6+lwZNqNIeOSVIRGJDUNeGTajSHjklSERiQ1DXhk2o0h45JUhEYkNQ14ZNqNIeEhzDHllSHrkYMgrw2YUCY+8MiQisWHIK8NmFAkPqcaQV4akR77G0OfKsCnFwSOvDIdHdBTyytApxQEkrwyHR3QU8srQKcUBJK8Mh0d0FPLK0CnFAUSaY8grw5Ejj0JeGTajSHjklSERiQ1DXhk2o0h4SDWGvDIkPcgrwyYSG4+8MmxGkfDIK0MiEhuGvDJsRpHwyCtDIhIbhrwybEaR8MgrQyISG2bVc0yqvZsbmsKS4k/H6+SV1UcYDzKWDablQMZ0IP7d/pbj8czcFCv66+T7Dx/7IXD+s1THJttQpGTSUEHXVWgxhEDRS1MVYIxhr3VN4S3llVlekMlcuagBY4+N7Bl4OmR6/6Fj3wLGn0mu63y/RVd3GoYKQhwhiIge8V5NkDC1XkVLemW2+7aVvrQNOHtkZGjguVCYFw8d+7QP/IiiqpfXd3Rfb6iKljQoldUqROn+FWuM7dtzV6Y+8FxnvQzs3r1DA/8KheGcSwcOH3+eMdjV2r7hnfbWdZ819IQiIkekM12jVIYhUvlnMF1vPj3/xvzszCc5hz8P77nzm4yxIFc0/nDktS0JP/Eik5WO9R0bJjs72m9JGgmNUhmGJBHG4lTm2pevzL51+fJML/e9GVd2937j3i+fEdsWVfOXXvnbzV7g/w4Yu07XjYnujd1uV2f79vaUYWiqzKj41yZSVhg+m7bNqenZU1NTFxO2ZfUB52cVSX7o/t13nIiPsKjNEpGj+OpTAHwQGLQBBx0A5NqWRHuXMOADAws4zAKwUU92Ho8jpaIwcc05ePj4zT7ATcBgU+AHBlGLx4AkSyZwuCAD/Ptre+48IWpKKToNJnh8oyL9H/M+qb095frIAAAAAElFTkSuQmCC;" vertex="1" parent="1">
          <mxGeometry x="359.09" y="1660" width="121.83" height="172" as="geometry" />
        </mxCell>
        <mxCell id="Un7Jyg0JT3fOC_ovDJ1f-70" value="" style="rounded=0;whiteSpace=wrap;html=1;strokeColor=#999999;" vertex="1" parent="1">
          <mxGeometry x="670" y="400" width="340" height="210" as="geometry" />
        </mxCell>
        <mxCell id="Un7Jyg0JT3fOC_ovDJ1f-71" value="" style="rounded=0;whiteSpace=wrap;html=1;shadow=0;glass=0;fillColor=#fff2cc;strokeColor=#d6b656;" vertex="1" parent="1">
          <mxGeometry x="810" y="440" width="190" height="100" as="geometry" />
        </mxCell>
        <mxCell id="Un7Jyg0JT3fOC_ovDJ1f-72" value="" style="rounded=0;whiteSpace=wrap;html=1;strokeColor=#B3B3B3;" vertex="1" parent="1">
          <mxGeometry x="670" y="80" width="340" height="290" as="geometry" />
        </mxCell>
        <mxCell id="Un7Jyg0JT3fOC_ovDJ1f-73" value="" style="rounded=0;whiteSpace=wrap;html=1;shadow=0;glass=0;fillColor=#fff2cc;strokeColor=#d6b656;rotation=90;" vertex="1" parent="1">
          <mxGeometry x="745" y="219" width="190" height="100" as="geometry" />
        </mxCell>
        <mxCell id="Un7Jyg0JT3fOC_ovDJ1f-74" value="" style="shape=curlyBracket;whiteSpace=wrap;html=1;rounded=1;flipH=1;labelPosition=right;verticalLabelPosition=middle;align=left;verticalAlign=middle;" vertex="1" parent="1">
          <mxGeometry x="900" y="177" width="20" height="180" as="geometry" />
        </mxCell>
        <mxCell id="Un7Jyg0JT3fOC_ovDJ1f-75" value="高" style="text;html=1;strokeColor=none;fillColor=none;align=center;verticalAlign=middle;whiteSpace=wrap;rounded=0;fontColor=#FF8000;" vertex="1" parent="1">
          <mxGeometry x="900" y="196" width="60" height="30" as="geometry" />
        </mxCell>
        <mxCell id="Un7Jyg0JT3fOC_ovDJ1f-76" value="" style="shape=curlyBracket;whiteSpace=wrap;html=1;rounded=1;flipH=1;labelPosition=right;verticalLabelPosition=middle;align=left;verticalAlign=middle;rotation=-90;fontColor=#FF8000;" vertex="1" parent="1">
          <mxGeometry x="830" y="102" width="20" height="100" as="geometry" />
        </mxCell>
        <mxCell id="Un7Jyg0JT3fOC_ovDJ1f-77" value="宽" style="text;html=1;strokeColor=none;fillColor=none;align=center;verticalAlign=middle;whiteSpace=wrap;rounded=0;fontColor=#FF8000;" vertex="1" parent="1">
          <mxGeometry x="810" y="114" width="60" height="30" as="geometry" />
        </mxCell>
        <mxCell id="Un7Jyg0JT3fOC_ovDJ1f-78" value="" style="shape=curlyBracket;whiteSpace=wrap;html=1;rounded=1;flipH=1;labelPosition=right;verticalLabelPosition=middle;align=left;verticalAlign=middle;rotation=90;" vertex="1" parent="1">
          <mxGeometry x="895" y="465" width="20" height="190" as="geometry" />
        </mxCell>
        <mxCell id="Un7Jyg0JT3fOC_ovDJ1f-79" value="高" style="text;html=1;strokeColor=none;fillColor=none;align=center;verticalAlign=middle;whiteSpace=wrap;rounded=0;fontColor=#FF8000;" vertex="1" parent="1">
          <mxGeometry x="875" y="565" width="60" height="30" as="geometry" />
        </mxCell>
        <mxCell id="Un7Jyg0JT3fOC_ovDJ1f-80" value="" style="shape=curlyBracket;whiteSpace=wrap;html=1;rounded=1;flipH=1;labelPosition=right;verticalLabelPosition=middle;align=left;verticalAlign=middle;rotation=-180;" vertex="1" parent="1">
          <mxGeometry x="780" y="440" width="20" height="100" as="geometry" />
        </mxCell>
        <mxCell id="Un7Jyg0JT3fOC_ovDJ1f-81" value="宽" style="text;html=1;strokeColor=none;fillColor=none;align=center;verticalAlign=middle;whiteSpace=wrap;rounded=0;fontColor=#FF8000;" vertex="1" parent="1">
          <mxGeometry x="740" y="480" width="60" height="30" as="geometry" />
        </mxCell>
        <mxCell id="Un7Jyg0JT3fOC_ovDJ1f-82" value="旋转 90°" style="text;html=1;strokeColor=none;fillColor=none;align=center;verticalAlign=middle;whiteSpace=wrap;rounded=0;" vertex="1" parent="1">
          <mxGeometry x="670" y="400" width="60" height="30" as="geometry" />
        </mxCell>
        <mxCell id="Un7Jyg0JT3fOC_ovDJ1f-83" value="" style="shape=image;verticalLabelPosition=bottom;labelBackgroundColor=default;verticalAlign=top;aspect=fixed;imageAspect=0;image=data:image/png,iVBORw0KGgoAAAANSUhEUgAAAGYAAACQCAYAAAD6FB5mAAAAAXNSR0IArs4c6QAADgBJREFUeF7tXW1sXXUZf/7nnHtebu/armu7tZ0UNrZgmDBBMSpQamIkjK2Io42YaEiMiZBg9ItRDAyiicQPJkYSoh8UEqMbDLIx5QOJ3aaGRAgypwKDvZTSbqNrt7a397yfv/mfc899673tbe9z713Sp8lNb7dzfud/fr/zvP3OPS2DMl8HDhyQxT8PDw/75f6f/q3+DLDCQ/zpyOgOyWd3MMb6OQDnPLCDoP6LWMtHkBU2Bz6fgETLseFdt12IucgJ88Lhow8HHH4EwDYAcJ8xpnLO1bVMWoPO3QPGMgz4JHDl0eGh218Txw2FOfDyX2/lknw4qWv6zpu2Z3o3tvdKjEkNWtiaPozjeMHYxKWZd06d1WzHvShJ0lf23nvHmUiYQ0e/y4H/8rZbd0xf29fZu6aZatLJnx2fuvjG2/9LAWePjAwNPBcKs//Q6E8A2FNDd9/ONVWmSGmCOLbrB4de/TsHzh4buW/g6UiYV44+CgH7xRc/d/Nc38a2ziasa00fkgPA2OTM7D/fPKlIEnv4gd0Dz0ep7JXjt0EQHEytS2V23rhV13W909AVXVcVKeBhf7amiUM/ecZAYgwsxwvm5k1nLr3gv3NqzDVNa5xB8MDw0JfeC4UZHR1VptPytwMe/FqWFVtRJG3b1msvXd/fvfHt/7wPpuWgr20tAxq6Cjt3bIMPxj6+eOr9c52u5wIP+Ekms0f27rrzdcYYL5pjXjhy7AuBD98DxvfcsH3L9A1bevpef/O/sJCx1jKP6OfektTh85+5Ed49c37i3ffOtHLGHzfXwbMPDQ7miC4SJmoEjg4Cg/03bN/ikDDomoSARcKcOqMCh5GRobtGC49GwtSH+yVRSZgmkF7NIUmYalhqwjYkTBNIr+aQjRWGsch4q/MXX+1MdRWtryHC6LoOLS0p0LQEKLIEslRfeVzPh0zGhrn5OfA8b8nLQJYVSK1LgaHr4doURarrxSNukZi2DfPzaTBNs+La6i6Mriehp7cPkoYGuqpAIiGDqsihZy3kEX5B/F2sMpaMA4eVxFcOh3NwvQAypgvTV67A+ckJ8P3y9/JkWYau7h5oa2sFXVNASyigJuTwwilcV+n6Io9jdevz/QBM24N0xoLx8XHIZBbKilN3YTZfswWShh6esHhpCTm8KoXdUHrylS6feLtqMqBIY44bgO36YNkeTE5OwOzs5bK7tra2Q9fGnty64jVKkrhAxPoi8pc7frXnIRYRCuP44Dg+zKUXYOzc6cYLk0gkYPM1W0MhhCDxiccRE0dI4YkvR0J0reYjq/SsQmG8AGzHB9v2YObKLFw4P1725Ddu6oNUqhVUNX/RiDVKBam2UlRXs85yB/X8aG2WWJ/jwbmzH4DrLraz6hoxmmZA7+Z+SChSmL40Vc6lMsYqE1x60ishIRcx2ROfnU/DxEfnygrT09cPyWQyt7Z8xERJtNIFU8v6RMRYtg+WGwnz4dhZsO3FtaYBwlwDCSV/RYoaI36OL0qRLqLEIYjIv6+c1vK5vZxgRRHjeDA7Nw8TH42Vhevt6wdDCBOmWAnUbI0REVNY6wrXV5jiyoEW1sZ8isuvOY6YMGpcDz481zRhshFTkMpEBC1VY8oV3mr7uNIaM7dExBQLk0+1+RpT3KDEQtSyPiGMiBhH1MDmRkx/2RpTmMpWkqqWawCEMKIrE4VfpIu5ucqprJIwhV1ZXNNW24WVrjcfMV7YoIw1L2Lyqayo+IuOJ+zMitvO+Hbb4hwfd0hLt6mxMGZ4VVaRyoxsKss2AIvb5XLrq7yGcm1+4YVXXPx9+HDsTHNqTE+2+Jd2ZSJi8ldj5S5ruS6sbFcWt8thjUnDZIXiH0dM0dqyXVm+xkRHKE2lq43yohpzNaay+EwLT3i1J1soTq7421HXs1RXlktl2Y4xjujYmail+6qUcsOuLOwYm1ljdAN6e7OprCBVxF1Z5bRVvuguV1/C6MrNMV5YZOfmq+jKSoSJ55jCib+wxlQzd1W6yPKpzAvFaU67rBvQ09sPatiKFg6YYrQub7jUGjWFXVkYMVUU/3wqi1rmUmEwo7p0wGyOMJoBosaoihTOLnrBgFlvr0xEi11N8c8OmGL6jwWqt1cmUpl4ieakiV1Z8RzTaK9sqTkmN/lnPbxGe2VX5RxTWPyrydlFBX4FXtmyloxol5volTUtlV3NXlmlriy2ZMgrI69sUcPZABOTvLJC1hvilW29rt/b+omunrdOnoKMaS9SXdN06N7UF96yjTozcYcwe/s2Z8fEE0LhVFPNxFJ+G9Eue/H9GM+H+fQCXDz/UdmNxdoMw8h1jaL4hwZraH0Xm0KrvaNaemAxYAoDU7yEVzY5MQ62vfhTrOKO7y2f2g6nx6fOnz47piz7gT/x7KWkb7rP58FvGWPtxeNItR7w6olfG3vGF2n4WX3OA77AJfhxq9L3m3vu2ZaLgCK2Dxw+PgAQPMMkuaO7q7NLTciKIsthZyNLspgb6asGBsSTE54XRZT47nqBd2nm8mnfdTpAgp+O7L7rVzF8juqDB0c3ewo7rqiq1t3VbbSmWtYbRgKSugri0+maqoSOMX2tnoHoDqcHGcsOn6DImA6kLXti5tL0lGNlrgOJPTiye+AvOWNVpDCmd/+eg3R/2/oNs23rWnp0XYUWIxKFhFm9GIV7+kEAluVCxnLAzH63LAcWTPvklZmPe4DzE13rgrsHBwe9MAReOvKPHZ7vvqqoBmtb39GT1BNSMiuKiBjxXvhMFDG1CVQsTBQxlu3CguUG87OXz3iOaSQkedf9u+84kX2i7NiDEMCzydYNC0ld3SQiRHQOlMpqE6Jc1yaEiCImGzWmSGsumLZzwZyfSTIefGf4vsH9kTCHjv6AA/t5qr2LGZqixHXFMKJ0pmtUYzAkCiNG1BjTilKZ6YIZ1hsXTMfxzPlpDzj//sjQ4LOhMPsPjT4BwPa1tHVCUlNBCEKpDEOKYozSVJaPGidsCKz0jA+MPTayJ/vU8h9fHt0nSeyJVGtXmL4MrTiVibQmBjSqMbWJFQsTdmRhV5aPGPGzlZ4Ww+++kaGBJ8OIiYVpae2CpJ6IokXUGPE+15UlaI6pTReIhMm3y1E6y6YyUXPS0xAE/Mmvf3VwX4kwnaEohTUmfG9o4YeyaYypTZmoxrhgmnHERA1AHEEiYioLEwqRTWVFEUPtcm2yQBgxsRCRGEKkKGLC1nmhgjCpti4wtGwqywpEXVmtcuT3j7syIUY8ZAqBFrLiLB0x8WApvodNAA2YWNJElkz5OSYu/lXUGBowsQSJccp5ZabtgBl2Zy6Y6UuVaky+KyOvDFuWqMaU88pEfVkyYlKtnZFpSQMmviriibMiYfJe2bLCtLR25lpl8srwtUGqMVHkUFeGJ9BSXtnyxZ9SGZ4SJUhLe2WRJVO2KyOvrG6ahMDVeGUV2mXyyuopDXll9WS3Bmzyymogr567kldWT3ZrwCavrAby6rkr0hxDXhm2SOSVYTOKhEdeGRKR2DDklWEzioSHVGPIK0PSIwdDXhk2o0h45JUhEYkNQ14ZNqNIeOSVIRGJDUNeGTajSHjklSERiQ1DXhk2o0h4SHMMeWVIeuTnmDLPYNLnyrBZXgUeeWWrIK0Ru5BX1giWV3EMpBpDXtkquF9yF/LKsBlFwiOvDIlIbBjyyrAZRcIjrwyJSGwY8sqwGUXCI68MiUhsGPLKsBlFwkOaY8grQ9KDvDJsIrHxyCvDZhQJj7wyJCKxYZBqDHll6MIs8fvK6BlMbLZXgEde2QrIauSm5JU1ku0VHIu8shWQ1chNyStrJNsrOBZ5ZSsgq5GbklfWSLZXcCykOYa8shVwXtWm9AxmVTQ1fiPyyhrPeVVHJK+sKpoavxFSjSGvDFs6+lwZNqNIeOSVIRGJDUNeGTajSHjklSERiQ1DXhk2o0h45JUhEYkNQ14ZNqNIeEhzDHllSHrkYMgrw2YUCY+8MiQisWHIK8NmFAkPqcaQV4akR77G0OfKsCnFwSOvDIdHdBTyytApxQEkrwyHR3QU8srQKcUBJK8Mh0d0FPLK0CnFAUSaY8grw5Ejj0JeGTajSHjklSERiQ1DXhk2o0h4SDWGvDIkPcgrwyYSG4+8MmxGkfDIK0MiEhuGvDJsRpHwyCtDIhIbhrwybEaR8MgrQyISG2bVc0yqvZsbmsKS4k/H6+SV1UcYDzKWDablQMZ0IP7d/pbj8czcFCv66+T7Dx/7IXD+s1THJttQpGTSUEHXVWgxhEDRS1MVYIxhr3VN4S3llVlekMlcuagBY4+N7Bl4OmR6/6Fj3wLGn0mu63y/RVd3GoYKQhwhiIge8V5NkDC1XkVLemW2+7aVvrQNOHtkZGjguVCYFw8d+7QP/IiiqpfXd3Rfb6iKljQoldUqROn+FWuM7dtzV6Y+8FxnvQzs3r1DA/8KheGcSwcOH3+eMdjV2r7hnfbWdZ819IQiIkekM12jVIYhUvlnMF1vPj3/xvzszCc5hz8P77nzm4yxIFc0/nDktS0JP/Eik5WO9R0bJjs72m9JGgmNUhmGJBHG4lTm2pevzL51+fJML/e9GVd2937j3i+fEdsWVfOXXvnbzV7g/w4Yu07XjYnujd1uV2f79vaUYWiqzKj41yZSVhg+m7bNqenZU1NTFxO2ZfUB52cVSX7o/t13nIiPsKjNEpGj+OpTAHwQGLQBBx0A5NqWRHuXMOADAws4zAKwUU92Ho8jpaIwcc05ePj4zT7ATcBgU+AHBlGLx4AkSyZwuCAD/Ptre+48IWpKKToNJnh8oyL9H/M+qb095frIAAAAAElFTkSuQmCC;" vertex="1" parent="1">
          <mxGeometry x="390" y="122.5" width="102" height="144" as="geometry" />
        </mxCell>
        <mxCell id="Un7Jyg0JT3fOC_ovDJ1f-84" value="" style="shape=image;verticalLabelPosition=bottom;labelBackgroundColor=default;verticalAlign=top;aspect=fixed;imageAspect=0;image=data:image/png,iVBORw0KGgoAAAANSUhEUgAAAGYAAACQCAYAAAD6FB5mAAAAAXNSR0IArs4c6QAADgBJREFUeF7tXW1sXXUZf/7nnHtebu/armu7tZ0UNrZgmDBBMSpQamIkjK2Io42YaEiMiZBg9ItRDAyiicQPJkYSoh8UEqMbDLIx5QOJ3aaGRAgypwKDvZTSbqNrt7a397yfv/mfc899673tbe9z713Sp8lNb7dzfud/fr/zvP3OPS2DMl8HDhyQxT8PDw/75f6f/q3+DLDCQ/zpyOgOyWd3MMb6OQDnPLCDoP6LWMtHkBU2Bz6fgETLseFdt12IucgJ88Lhow8HHH4EwDYAcJ8xpnLO1bVMWoPO3QPGMgz4JHDl0eGh218Txw2FOfDyX2/lknw4qWv6zpu2Z3o3tvdKjEkNWtiaPozjeMHYxKWZd06d1WzHvShJ0lf23nvHmUiYQ0e/y4H/8rZbd0xf29fZu6aZatLJnx2fuvjG2/9LAWePjAwNPBcKs//Q6E8A2FNDd9/ONVWmSGmCOLbrB4de/TsHzh4buW/g6UiYV44+CgH7xRc/d/Nc38a2ziasa00fkgPA2OTM7D/fPKlIEnv4gd0Dz0ep7JXjt0EQHEytS2V23rhV13W909AVXVcVKeBhf7amiUM/ecZAYgwsxwvm5k1nLr3gv3NqzDVNa5xB8MDw0JfeC4UZHR1VptPytwMe/FqWFVtRJG3b1msvXd/fvfHt/7wPpuWgr20tAxq6Cjt3bIMPxj6+eOr9c52u5wIP+Ekms0f27rrzdcYYL5pjXjhy7AuBD98DxvfcsH3L9A1bevpef/O/sJCx1jKP6OfektTh85+5Ed49c37i3ffOtHLGHzfXwbMPDQ7miC4SJmoEjg4Cg/03bN/ikDDomoSARcKcOqMCh5GRobtGC49GwtSH+yVRSZgmkF7NIUmYalhqwjYkTBNIr+aQjRWGsch4q/MXX+1MdRWtryHC6LoOLS0p0LQEKLIEslRfeVzPh0zGhrn5OfA8b8nLQJYVSK1LgaHr4doURarrxSNukZi2DfPzaTBNs+La6i6Mriehp7cPkoYGuqpAIiGDqsihZy3kEX5B/F2sMpaMA4eVxFcOh3NwvQAypgvTV67A+ckJ8P3y9/JkWYau7h5oa2sFXVNASyigJuTwwilcV+n6Io9jdevz/QBM24N0xoLx8XHIZBbKilN3YTZfswWShh6esHhpCTm8KoXdUHrylS6feLtqMqBIY44bgO36YNkeTE5OwOzs5bK7tra2Q9fGnty64jVKkrhAxPoi8pc7frXnIRYRCuP44Dg+zKUXYOzc6cYLk0gkYPM1W0MhhCDxiccRE0dI4YkvR0J0reYjq/SsQmG8AGzHB9v2YObKLFw4P1725Ddu6oNUqhVUNX/RiDVKBam2UlRXs85yB/X8aG2WWJ/jwbmzH4DrLraz6hoxmmZA7+Z+SChSmL40Vc6lMsYqE1x60ishIRcx2ROfnU/DxEfnygrT09cPyWQyt7Z8xERJtNIFU8v6RMRYtg+WGwnz4dhZsO3FtaYBwlwDCSV/RYoaI36OL0qRLqLEIYjIv6+c1vK5vZxgRRHjeDA7Nw8TH42Vhevt6wdDCBOmWAnUbI0REVNY6wrXV5jiyoEW1sZ8isuvOY6YMGpcDz481zRhshFTkMpEBC1VY8oV3mr7uNIaM7dExBQLk0+1+RpT3KDEQtSyPiGMiBhH1MDmRkx/2RpTmMpWkqqWawCEMKIrE4VfpIu5ucqprJIwhV1ZXNNW24WVrjcfMV7YoIw1L2Lyqayo+IuOJ+zMitvO+Hbb4hwfd0hLt6mxMGZ4VVaRyoxsKss2AIvb5XLrq7yGcm1+4YVXXPx9+HDsTHNqTE+2+Jd2ZSJi8ldj5S5ruS6sbFcWt8thjUnDZIXiH0dM0dqyXVm+xkRHKE2lq43yohpzNaay+EwLT3i1J1soTq7421HXs1RXlktl2Y4xjujYmail+6qUcsOuLOwYm1ljdAN6e7OprCBVxF1Z5bRVvuguV1/C6MrNMV5YZOfmq+jKSoSJ55jCib+wxlQzd1W6yPKpzAvFaU67rBvQ09sPatiKFg6YYrQub7jUGjWFXVkYMVUU/3wqi1rmUmEwo7p0wGyOMJoBosaoihTOLnrBgFlvr0xEi11N8c8OmGL6jwWqt1cmUpl4ieakiV1Z8RzTaK9sqTkmN/lnPbxGe2VX5RxTWPyrydlFBX4FXtmyloxol5volTUtlV3NXlmlriy2ZMgrI69sUcPZABOTvLJC1hvilW29rt/b+omunrdOnoKMaS9SXdN06N7UF96yjTozcYcwe/s2Z8fEE0LhVFPNxFJ+G9Eue/H9GM+H+fQCXDz/UdmNxdoMw8h1jaL4hwZraH0Xm0KrvaNaemAxYAoDU7yEVzY5MQ62vfhTrOKO7y2f2g6nx6fOnz47piz7gT/x7KWkb7rP58FvGWPtxeNItR7w6olfG3vGF2n4WX3OA77AJfhxq9L3m3vu2ZaLgCK2Dxw+PgAQPMMkuaO7q7NLTciKIsthZyNLspgb6asGBsSTE54XRZT47nqBd2nm8mnfdTpAgp+O7L7rVzF8juqDB0c3ewo7rqiq1t3VbbSmWtYbRgKSugri0+maqoSOMX2tnoHoDqcHGcsOn6DImA6kLXti5tL0lGNlrgOJPTiye+AvOWNVpDCmd/+eg3R/2/oNs23rWnp0XYUWIxKFhFm9GIV7+kEAluVCxnLAzH63LAcWTPvklZmPe4DzE13rgrsHBwe9MAReOvKPHZ7vvqqoBmtb39GT1BNSMiuKiBjxXvhMFDG1CVQsTBQxlu3CguUG87OXz3iOaSQkedf9u+84kX2i7NiDEMCzydYNC0ld3SQiRHQOlMpqE6Jc1yaEiCImGzWmSGsumLZzwZyfSTIefGf4vsH9kTCHjv6AA/t5qr2LGZqixHXFMKJ0pmtUYzAkCiNG1BjTilKZ6YIZ1hsXTMfxzPlpDzj//sjQ4LOhMPsPjT4BwPa1tHVCUlNBCEKpDEOKYozSVJaPGidsCKz0jA+MPTayJ/vU8h9fHt0nSeyJVGtXmL4MrTiVibQmBjSqMbWJFQsTdmRhV5aPGPGzlZ4Ww+++kaGBJ8OIiYVpae2CpJ6IokXUGPE+15UlaI6pTReIhMm3y1E6y6YyUXPS0xAE/Mmvf3VwX4kwnaEohTUmfG9o4YeyaYypTZmoxrhgmnHERA1AHEEiYioLEwqRTWVFEUPtcm2yQBgxsRCRGEKkKGLC1nmhgjCpti4wtGwqywpEXVmtcuT3j7syIUY8ZAqBFrLiLB0x8WApvodNAA2YWNJElkz5OSYu/lXUGBowsQSJccp5ZabtgBl2Zy6Y6UuVaky+KyOvDFuWqMaU88pEfVkyYlKtnZFpSQMmviriibMiYfJe2bLCtLR25lpl8srwtUGqMVHkUFeGJ9BSXtnyxZ9SGZ4SJUhLe2WRJVO2KyOvrG6ahMDVeGUV2mXyyuopDXll9WS3Bmzyymogr567kldWT3ZrwCavrAby6rkr0hxDXhm2SOSVYTOKhEdeGRKR2DDklWEzioSHVGPIK0PSIwdDXhk2o0h45JUhEYkNQ14ZNqNIeOSVIRGJDUNeGTajSHjklSERiQ1DXhk2o0h4SHMMeWVIeuTnmDLPYNLnyrBZXgUeeWWrIK0Ru5BX1giWV3EMpBpDXtkquF9yF/LKsBlFwiOvDIlIbBjyyrAZRcIjrwyJSGwY8sqwGUXCI68MiUhsGPLKsBlFwkOaY8grQ9KDvDJsIrHxyCvDZhQJj7wyJCKxYZBqDHll6MIs8fvK6BlMbLZXgEde2QrIauSm5JU1ku0VHIu8shWQ1chNyStrJNsrOBZ5ZSsgq5GbklfWSLZXcCykOYa8shVwXtWm9AxmVTQ1fiPyyhrPeVVHJK+sKpoavxFSjSGvDFs6+lwZNqNIeOSVIRGJDUNeGTajSHjklSERiQ1DXhk2o0h45JUhEYkNQ14ZNqNIeEhzDHllSHrkYMgrw2YUCY+8MiQisWHIK8NmFAkPqcaQV4akR77G0OfKsCnFwSOvDIdHdBTyytApxQEkrwyHR3QU8srQKcUBJK8Mh0d0FPLK0CnFAUSaY8grw5Ejj0JeGTajSHjklSERiQ1DXhk2o0h4SDWGvDIkPcgrwyYSG4+8MmxGkfDIK0MiEhuGvDJsRpHwyCtDIhIbhrwybEaR8MgrQyISG2bVc0yqvZsbmsKS4k/H6+SV1UcYDzKWDablQMZ0IP7d/pbj8czcFCv66+T7Dx/7IXD+s1THJttQpGTSUEHXVWgxhEDRS1MVYIxhr3VN4S3llVlekMlcuagBY4+N7Bl4OmR6/6Fj3wLGn0mu63y/RVd3GoYKQhwhiIge8V5NkDC1XkVLemW2+7aVvrQNOHtkZGjguVCYFw8d+7QP/IiiqpfXd3Rfb6iKljQoldUqROn+FWuM7dtzV6Y+8FxnvQzs3r1DA/8KheGcSwcOH3+eMdjV2r7hnfbWdZ819IQiIkekM12jVIYhUvlnMF1vPj3/xvzszCc5hz8P77nzm4yxIFc0/nDktS0JP/Eik5WO9R0bJjs72m9JGgmNUhmGJBHG4lTm2pevzL51+fJML/e9GVd2937j3i+fEdsWVfOXXvnbzV7g/w4Yu07XjYnujd1uV2f79vaUYWiqzKj41yZSVhg+m7bNqenZU1NTFxO2ZfUB52cVSX7o/t13nIiPsKjNEpGj+OpTAHwQGLQBBx0A5NqWRHuXMOADAws4zAKwUU92Ho8jpaIwcc05ePj4zT7ATcBgU+AHBlGLx4AkSyZwuCAD/Ptre+48IWpKKToNJnh8oyL9H/M+qb095frIAAAAAElFTkSuQmCC;rotation=-180;" vertex="1" parent="1">
          <mxGeometry x="789" y="197" width="102" height="144" as="geometry" />
        </mxCell>
        <mxCell id="Un7Jyg0JT3fOC_ovDJ1f-85" value="" style="shape=image;verticalLabelPosition=bottom;labelBackgroundColor=default;verticalAlign=top;aspect=fixed;imageAspect=0;image=data:image/png,iVBORw0KGgoAAAANSUhEUgAAAGYAAACQCAYAAAD6FB5mAAAAAXNSR0IArs4c6QAADgBJREFUeF7tXW1sXXUZf/7nnHtebu/armu7tZ0UNrZgmDBBMSpQamIkjK2Io42YaEiMiZBg9ItRDAyiicQPJkYSoh8UEqMbDLIx5QOJ3aaGRAgypwKDvZTSbqNrt7a397yfv/mfc899673tbe9z713Sp8lNb7dzfud/fr/zvP3OPS2DMl8HDhyQxT8PDw/75f6f/q3+DLDCQ/zpyOgOyWd3MMb6OQDnPLCDoP6LWMtHkBU2Bz6fgETLseFdt12IucgJ88Lhow8HHH4EwDYAcJ8xpnLO1bVMWoPO3QPGMgz4JHDl0eGh218Txw2FOfDyX2/lknw4qWv6zpu2Z3o3tvdKjEkNWtiaPozjeMHYxKWZd06d1WzHvShJ0lf23nvHmUiYQ0e/y4H/8rZbd0xf29fZu6aZatLJnx2fuvjG2/9LAWePjAwNPBcKs//Q6E8A2FNDd9/ONVWmSGmCOLbrB4de/TsHzh4buW/g6UiYV44+CgH7xRc/d/Nc38a2ziasa00fkgPA2OTM7D/fPKlIEnv4gd0Dz0ep7JXjt0EQHEytS2V23rhV13W909AVXVcVKeBhf7amiUM/ecZAYgwsxwvm5k1nLr3gv3NqzDVNa5xB8MDw0JfeC4UZHR1VptPytwMe/FqWFVtRJG3b1msvXd/fvfHt/7wPpuWgr20tAxq6Cjt3bIMPxj6+eOr9c52u5wIP+Ekms0f27rrzdcYYL5pjXjhy7AuBD98DxvfcsH3L9A1bevpef/O/sJCx1jKP6OfektTh85+5Ed49c37i3ffOtHLGHzfXwbMPDQ7miC4SJmoEjg4Cg/03bN/ikDDomoSARcKcOqMCh5GRobtGC49GwtSH+yVRSZgmkF7NIUmYalhqwjYkTBNIr+aQjRWGsch4q/MXX+1MdRWtryHC6LoOLS0p0LQEKLIEslRfeVzPh0zGhrn5OfA8b8nLQJYVSK1LgaHr4doURarrxSNukZi2DfPzaTBNs+La6i6Mriehp7cPkoYGuqpAIiGDqsihZy3kEX5B/F2sMpaMA4eVxFcOh3NwvQAypgvTV67A+ckJ8P3y9/JkWYau7h5oa2sFXVNASyigJuTwwilcV+n6Io9jdevz/QBM24N0xoLx8XHIZBbKilN3YTZfswWShh6esHhpCTm8KoXdUHrylS6feLtqMqBIY44bgO36YNkeTE5OwOzs5bK7tra2Q9fGnty64jVKkrhAxPoi8pc7frXnIRYRCuP44Dg+zKUXYOzc6cYLk0gkYPM1W0MhhCDxiccRE0dI4YkvR0J0reYjq/SsQmG8AGzHB9v2YObKLFw4P1725Ddu6oNUqhVUNX/RiDVKBam2UlRXs85yB/X8aG2WWJ/jwbmzH4DrLraz6hoxmmZA7+Z+SChSmL40Vc6lMsYqE1x60ishIRcx2ROfnU/DxEfnygrT09cPyWQyt7Z8xERJtNIFU8v6RMRYtg+WGwnz4dhZsO3FtaYBwlwDCSV/RYoaI36OL0qRLqLEIYjIv6+c1vK5vZxgRRHjeDA7Nw8TH42Vhevt6wdDCBOmWAnUbI0REVNY6wrXV5jiyoEW1sZ8isuvOY6YMGpcDz481zRhshFTkMpEBC1VY8oV3mr7uNIaM7dExBQLk0+1+RpT3KDEQtSyPiGMiBhH1MDmRkx/2RpTmMpWkqqWawCEMKIrE4VfpIu5ucqprJIwhV1ZXNNW24WVrjcfMV7YoIw1L2Lyqayo+IuOJ+zMitvO+Hbb4hwfd0hLt6mxMGZ4VVaRyoxsKss2AIvb5XLrq7yGcm1+4YVXXPx9+HDsTHNqTE+2+Jd2ZSJi8ldj5S5ruS6sbFcWt8thjUnDZIXiH0dM0dqyXVm+xkRHKE2lq43yohpzNaay+EwLT3i1J1soTq7421HXs1RXlktl2Y4xjujYmail+6qUcsOuLOwYm1ljdAN6e7OprCBVxF1Z5bRVvuguV1/C6MrNMV5YZOfmq+jKSoSJ55jCib+wxlQzd1W6yPKpzAvFaU67rBvQ09sPatiKFg6YYrQub7jUGjWFXVkYMVUU/3wqi1rmUmEwo7p0wGyOMJoBosaoihTOLnrBgFlvr0xEi11N8c8OmGL6jwWqt1cmUpl4ieakiV1Z8RzTaK9sqTkmN/lnPbxGe2VX5RxTWPyrydlFBX4FXtmyloxol5volTUtlV3NXlmlriy2ZMgrI69sUcPZABOTvLJC1hvilW29rt/b+omunrdOnoKMaS9SXdN06N7UF96yjTozcYcwe/s2Z8fEE0LhVFPNxFJ+G9Eue/H9GM+H+fQCXDz/UdmNxdoMw8h1jaL4hwZraH0Xm0KrvaNaemAxYAoDU7yEVzY5MQ62vfhTrOKO7y2f2g6nx6fOnz47piz7gT/x7KWkb7rP58FvGWPtxeNItR7w6olfG3vGF2n4WX3OA77AJfhxq9L3m3vu2ZaLgCK2Dxw+PgAQPMMkuaO7q7NLTciKIsthZyNLspgb6asGBsSTE54XRZT47nqBd2nm8mnfdTpAgp+O7L7rVzF8juqDB0c3ewo7rqiq1t3VbbSmWtYbRgKSugri0+maqoSOMX2tnoHoDqcHGcsOn6DImA6kLXti5tL0lGNlrgOJPTiye+AvOWNVpDCmd/+eg3R/2/oNs23rWnp0XYUWIxKFhFm9GIV7+kEAluVCxnLAzH63LAcWTPvklZmPe4DzE13rgrsHBwe9MAReOvKPHZ7vvqqoBmtb39GT1BNSMiuKiBjxXvhMFDG1CVQsTBQxlu3CguUG87OXz3iOaSQkedf9u+84kX2i7NiDEMCzydYNC0ld3SQiRHQOlMpqE6Jc1yaEiCImGzWmSGsumLZzwZyfSTIefGf4vsH9kTCHjv6AA/t5qr2LGZqixHXFMKJ0pmtUYzAkCiNG1BjTilKZ6YIZ1hsXTMfxzPlpDzj//sjQ4LOhMPsPjT4BwPa1tHVCUlNBCEKpDEOKYozSVJaPGidsCKz0jA+MPTayJ/vU8h9fHt0nSeyJVGtXmL4MrTiVibQmBjSqMbWJFQsTdmRhV5aPGPGzlZ4Ww+++kaGBJ8OIiYVpae2CpJ6IokXUGPE+15UlaI6pTReIhMm3y1E6y6YyUXPS0xAE/Mmvf3VwX4kwnaEohTUmfG9o4YeyaYypTZmoxrhgmnHERA1AHEEiYioLEwqRTWVFEUPtcm2yQBgxsRCRGEKkKGLC1nmhgjCpti4wtGwqywpEXVmtcuT3j7syIUY8ZAqBFrLiLB0x8WApvodNAA2YWNJElkz5OSYu/lXUGBowsQSJccp5ZabtgBl2Zy6Y6UuVaky+KyOvDFuWqMaU88pEfVkyYlKtnZFpSQMmviriibMiYfJe2bLCtLR25lpl8srwtUGqMVHkUFeGJ9BSXtnyxZ9SGZ4SJUhLe2WRJVO2KyOvrG6ahMDVeGUV2mXyyuopDXll9WS3Bmzyymogr567kldWT3ZrwCavrAby6rkr0hxDXhm2SOSVYTOKhEdeGRKR2DDklWEzioSHVGPIK0PSIwdDXhk2o0h45JUhEYkNQ14ZNqNIeOSVIRGJDUNeGTajSHjklSERiQ1DXhk2o0h4SHMMeWVIeuTnmDLPYNLnyrBZXgUeeWWrIK0Ru5BX1giWV3EMpBpDXtkquF9yF/LKsBlFwiOvDIlIbBjyyrAZRcIjrwyJSGwY8sqwGUXCI68MiUhsGPLKsBlFwkOaY8grQ9KDvDJsIrHxyCvDZhQJj7wyJCKxYZBqDHll6MIs8fvK6BlMbLZXgEde2QrIauSm5JU1ku0VHIu8shWQ1chNyStrJNsrOBZ5ZSsgq5GbklfWSLZXcCykOYa8shVwXtWm9AxmVTQ1fiPyyhrPeVVHJK+sKpoavxFSjSGvDFs6+lwZNqNIeOSVIRGJDUNeGTajSHjklSERiQ1DXhk2o0h45JUhEYkNQ14ZNqNIeEhzDHllSHrkYMgrw2YUCY+8MiQisWHIK8NmFAkPqcaQV4akR77G0OfKsCnFwSOvDIdHdBTyytApxQEkrwyHR3QU8srQKcUBJK8Mh0d0FPLK0CnFAUSaY8grw5Ejj0JeGTajSHjklSERiQ1DXhk2o0h4SDWGvDIkPcgrwyYSG4+8MmxGkfDIK0MiEhuGvDJsRpHwyCtDIhIbhrwybEaR8MgrQyISG2bVc0yqvZsbmsKS4k/H6+SV1UcYDzKWDablQMZ0IP7d/pbj8czcFCv66+T7Dx/7IXD+s1THJttQpGTSUEHXVWgxhEDRS1MVYIxhr3VN4S3llVlekMlcuagBY4+N7Bl4OmR6/6Fj3wLGn0mu63y/RVd3GoYKQhwhiIge8V5NkDC1XkVLemW2+7aVvrQNOHtkZGjguVCYFw8d+7QP/IiiqpfXd3Rfb6iKljQoldUqROn+FWuM7dtzV6Y+8FxnvQzs3r1DA/8KheGcSwcOH3+eMdjV2r7hnfbWdZ819IQiIkekM12jVIYhUvlnMF1vPj3/xvzszCc5hz8P77nzm4yxIFc0/nDktS0JP/Eik5WO9R0bJjs72m9JGgmNUhmGJBHG4lTm2pevzL51+fJML/e9GVd2937j3i+fEdsWVfOXXvnbzV7g/w4Yu07XjYnujd1uV2f79vaUYWiqzKj41yZSVhg+m7bNqenZU1NTFxO2ZfUB52cVSX7o/t13nIiPsKjNEpGj+OpTAHwQGLQBBx0A5NqWRHuXMOADAws4zAKwUU92Ho8jpaIwcc05ePj4zT7ATcBgU+AHBlGLx4AkSyZwuCAD/Ptre+48IWpKKToNJnh8oyL9H/M+qb095frIAAAAAElFTkSuQmCC;rotation=-90;" vertex="1" parent="1">
          <mxGeometry x="324" y="433" width="102" height="144" as="geometry" />
        </mxCell>
        <mxCell id="Un7Jyg0JT3fOC_ovDJ1f-86" value="" style="shape=image;verticalLabelPosition=bottom;labelBackgroundColor=default;verticalAlign=top;aspect=fixed;imageAspect=0;image=data:image/png,iVBORw0KGgoAAAANSUhEUgAAAGYAAACQCAYAAAD6FB5mAAAAAXNSR0IArs4c6QAADgBJREFUeF7tXW1sXXUZf/7nnHtebu/armu7tZ0UNrZgmDBBMSpQamIkjK2Io42YaEiMiZBg9ItRDAyiicQPJkYSoh8UEqMbDLIx5QOJ3aaGRAgypwKDvZTSbqNrt7a397yfv/mfc899673tbe9z713Sp8lNb7dzfud/fr/zvP3OPS2DMl8HDhyQxT8PDw/75f6f/q3+DLDCQ/zpyOgOyWd3MMb6OQDnPLCDoP6LWMtHkBU2Bz6fgETLseFdt12IucgJ88Lhow8HHH4EwDYAcJ8xpnLO1bVMWoPO3QPGMgz4JHDl0eGh218Txw2FOfDyX2/lknw4qWv6zpu2Z3o3tvdKjEkNWtiaPozjeMHYxKWZd06d1WzHvShJ0lf23nvHmUiYQ0e/y4H/8rZbd0xf29fZu6aZatLJnx2fuvjG2/9LAWePjAwNPBcKs//Q6E8A2FNDd9/ONVWmSGmCOLbrB4de/TsHzh4buW/g6UiYV44+CgH7xRc/d/Nc38a2ziasa00fkgPA2OTM7D/fPKlIEnv4gd0Dz0ep7JXjt0EQHEytS2V23rhV13W909AVXVcVKeBhf7amiUM/ecZAYgwsxwvm5k1nLr3gv3NqzDVNa5xB8MDw0JfeC4UZHR1VptPytwMe/FqWFVtRJG3b1msvXd/fvfHt/7wPpuWgr20tAxq6Cjt3bIMPxj6+eOr9c52u5wIP+Ekms0f27rrzdcYYL5pjXjhy7AuBD98DxvfcsH3L9A1bevpef/O/sJCx1jKP6OfektTh85+5Ed49c37i3ffOtHLGHzfXwbMPDQ7miC4SJmoEjg4Cg/03bN/ikDDomoSARcKcOqMCh5GRobtGC49GwtSH+yVRSZgmkF7NIUmYalhqwjYkTBNIr+aQjRWGsch4q/MXX+1MdRWtryHC6LoOLS0p0LQEKLIEslRfeVzPh0zGhrn5OfA8b8nLQJYVSK1LgaHr4doURarrxSNukZi2DfPzaTBNs+La6i6Mriehp7cPkoYGuqpAIiGDqsihZy3kEX5B/F2sMpaMA4eVxFcOh3NwvQAypgvTV67A+ckJ8P3y9/JkWYau7h5oa2sFXVNASyigJuTwwilcV+n6Io9jdevz/QBM24N0xoLx8XHIZBbKilN3YTZfswWShh6esHhpCTm8KoXdUHrylS6feLtqMqBIY44bgO36YNkeTE5OwOzs5bK7tra2Q9fGnty64jVKkrhAxPoi8pc7frXnIRYRCuP44Dg+zKUXYOzc6cYLk0gkYPM1W0MhhCDxiccRE0dI4YkvR0J0reYjq/SsQmG8AGzHB9v2YObKLFw4P1725Ddu6oNUqhVUNX/RiDVKBam2UlRXs85yB/X8aG2WWJ/jwbmzH4DrLraz6hoxmmZA7+Z+SChSmL40Vc6lMsYqE1x60ishIRcx2ROfnU/DxEfnygrT09cPyWQyt7Z8xERJtNIFU8v6RMRYtg+WGwnz4dhZsO3FtaYBwlwDCSV/RYoaI36OL0qRLqLEIYjIv6+c1vK5vZxgRRHjeDA7Nw8TH42Vhevt6wdDCBOmWAnUbI0REVNY6wrXV5jiyoEW1sZ8isuvOY6YMGpcDz481zRhshFTkMpEBC1VY8oV3mr7uNIaM7dExBQLk0+1+RpT3KDEQtSyPiGMiBhH1MDmRkx/2RpTmMpWkqqWawCEMKIrE4VfpIu5ucqprJIwhV1ZXNNW24WVrjcfMV7YoIw1L2Lyqayo+IuOJ+zMitvO+Hbb4hwfd0hLt6mxMGZ4VVaRyoxsKss2AIvb5XLrq7yGcm1+4YVXXPx9+HDsTHNqTE+2+Jd2ZSJi8ldj5S5ruS6sbFcWt8thjUnDZIXiH0dM0dqyXVm+xkRHKE2lq43yohpzNaay+EwLT3i1J1soTq7421HXs1RXlktl2Y4xjujYmail+6qUcsOuLOwYm1ljdAN6e7OprCBVxF1Z5bRVvuguV1/C6MrNMV5YZOfmq+jKSoSJ55jCib+wxlQzd1W6yPKpzAvFaU67rBvQ09sPatiKFg6YYrQub7jUGjWFXVkYMVUU/3wqi1rmUmEwo7p0wGyOMJoBosaoihTOLnrBgFlvr0xEi11N8c8OmGL6jwWqt1cmUpl4ieakiV1Z8RzTaK9sqTkmN/lnPbxGe2VX5RxTWPyrydlFBX4FXtmyloxol5volTUtlV3NXlmlriy2ZMgrI69sUcPZABOTvLJC1hvilW29rt/b+omunrdOnoKMaS9SXdN06N7UF96yjTozcYcwe/s2Z8fEE0LhVFPNxFJ+G9Eue/H9GM+H+fQCXDz/UdmNxdoMw8h1jaL4hwZraH0Xm0KrvaNaemAxYAoDU7yEVzY5MQ62vfhTrOKO7y2f2g6nx6fOnz47piz7gT/x7KWkb7rP58FvGWPtxeNItR7w6olfG3vGF2n4WX3OA77AJfhxq9L3m3vu2ZaLgCK2Dxw+PgAQPMMkuaO7q7NLTciKIsthZyNLspgb6asGBsSTE54XRZT47nqBd2nm8mnfdTpAgp+O7L7rVzF8juqDB0c3ewo7rqiq1t3VbbSmWtYbRgKSugri0+maqoSOMX2tnoHoDqcHGcsOn6DImA6kLXti5tL0lGNlrgOJPTiye+AvOWNVpDCmd/+eg3R/2/oNs23rWnp0XYUWIxKFhFm9GIV7+kEAluVCxnLAzH63LAcWTPvklZmPe4DzE13rgrsHBwe9MAReOvKPHZ7vvqqoBmtb39GT1BNSMiuKiBjxXvhMFDG1CVQsTBQxlu3CguUG87OXz3iOaSQkedf9u+84kX2i7NiDEMCzydYNC0ld3SQiRHQOlMpqE6Jc1yaEiCImGzWmSGsumLZzwZyfSTIefGf4vsH9kTCHjv6AA/t5qr2LGZqixHXFMKJ0pmtUYzAkCiNG1BjTilKZ6YIZ1hsXTMfxzPlpDzj//sjQ4LOhMPsPjT4BwPa1tHVCUlNBCEKpDEOKYozSVJaPGidsCKz0jA+MPTayJ/vU8h9fHt0nSeyJVGtXmL4MrTiVibQmBjSqMbWJFQsTdmRhV5aPGPGzlZ4Ww+++kaGBJ8OIiYVpae2CpJ6IokXUGPE+15UlaI6pTReIhMm3y1E6y6YyUXPS0xAE/Mmvf3VwX4kwnaEohTUmfG9o4YeyaYypTZmoxrhgmnHERA1AHEEiYioLEwqRTWVFEUPtcm2yQBgxsRCRGEKkKGLC1nmhgjCpti4wtGwqywpEXVmtcuT3j7syIUY8ZAqBFrLiLB0x8WApvodNAA2YWNJElkz5OSYu/lXUGBowsQSJccp5ZabtgBl2Zy6Y6UuVaky+KyOvDFuWqMaU88pEfVkyYlKtnZFpSQMmviriibMiYfJe2bLCtLR25lpl8srwtUGqMVHkUFeGJ9BSXtnyxZ9SGZ4SJUhLe2WRJVO2KyOvrG6ahMDVeGUV2mXyyuopDXll9WS3Bmzyymogr567kldWT3ZrwCavrAby6rkr0hxDXhm2SOSVYTOKhEdeGRKR2DDklWEzioSHVGPIK0PSIwdDXhk2o0h45JUhEYkNQ14ZNqNIeOSVIRGJDUNeGTajSHjklSERiQ1DXhk2o0h4SHMMeWVIeuTnmDLPYNLnyrBZXgUeeWWrIK0Ru5BX1giWV3EMpBpDXtkquF9yF/LKsBlFwiOvDIlIbBjyyrAZRcIjrwyJSGwY8sqwGUXCI68MiUhsGPLKsBlFwkOaY8grQ9KDvDJsIrHxyCvDZhQJj7wyJCKxYZBqDHll6MIs8fvK6BlMbLZXgEde2QrIauSm5JU1ku0VHIu8shWQ1chNyStrJNsrOBZ5ZSsgq5GbklfWSLZXcCykOYa8shVwXtWm9AxmVTQ1fiPyyhrPeVVHJK+sKpoavxFSjSGvDFs6+lwZNqNIeOSVIRGJDUNeGTajSHjklSERiQ1DXhk2o0h45JUhEYkNQ14ZNqNIeEhzDHllSHrkYMgrw2YUCY+8MiQisWHIK8NmFAkPqcaQV4akR77G0OfKsCnFwSOvDIdHdBTyytApxQEkrwyHR3QU8srQKcUBJK8Mh0d0FPLK0CnFAUSaY8grw5Ejj0JeGTajSHjklSERiQ1DXhk2o0h4SDWGvDIkPcgrwyYSG4+8MmxGkfDIK0MiEhuGvDJsRpHwyCtDIhIbhrwybEaR8MgrQyISG2bVc0yqvZsbmsKS4k/H6+SV1UcYDzKWDablQMZ0IP7d/pbj8czcFCv66+T7Dx/7IXD+s1THJttQpGTSUEHXVWgxhEDRS1MVYIxhr3VN4S3llVlekMlcuagBY4+N7Bl4OmR6/6Fj3wLGn0mu63y/RVd3GoYKQhwhiIge8V5NkDC1XkVLemW2+7aVvrQNOHtkZGjguVCYFw8d+7QP/IiiqpfXd3Rfb6iKljQoldUqROn+FWuM7dtzV6Y+8FxnvQzs3r1DA/8KheGcSwcOH3+eMdjV2r7hnfbWdZ819IQiIkekM12jVIYhUvlnMF1vPj3/xvzszCc5hz8P77nzm4yxIFc0/nDktS0JP/Eik5WO9R0bJjs72m9JGgmNUhmGJBHG4lTm2pevzL51+fJML/e9GVd2937j3i+fEdsWVfOXXvnbzV7g/w4Yu07XjYnujd1uV2f79vaUYWiqzKj41yZSVhg+m7bNqenZU1NTFxO2ZfUB52cVSX7o/t13nIiPsKjNEpGj+OpTAHwQGLQBBx0A5NqWRHuXMOADAws4zAKwUU92Ho8jpaIwcc05ePj4zT7ATcBgU+AHBlGLx4AkSyZwuCAD/Ptre+48IWpKKToNJnh8oyL9H/M+qb095frIAAAAAElFTkSuQmCC;rotation=90;" vertex="1" parent="1">
          <mxGeometry x="854" y="418" width="102" height="144" as="geometry" />
        </mxCell>
        <mxCell id="Un7Jyg0JT3fOC_ovDJ1f-87" value="旋转 270°" style="text;html=1;strokeColor=none;fillColor=none;align=center;verticalAlign=middle;whiteSpace=wrap;rounded=0;" vertex="1" parent="1">
          <mxGeometry x="280" y="403" width="60" height="30" as="geometry" />
        </mxCell>
        <mxCell id="Un7Jyg0JT3fOC_ovDJ1f-88" value="旋转 0°" style="text;html=1;strokeColor=none;fillColor=none;align=center;verticalAlign=middle;whiteSpace=wrap;rounded=0;" vertex="1" parent="1">
          <mxGeometry x="277.5" y="84" width="60" height="30" as="geometry" />
        </mxCell>
        <mxCell id="Un7Jyg0JT3fOC_ovDJ1f-89" value="旋转 180°" style="text;html=1;strokeColor=none;fillColor=none;align=center;verticalAlign=middle;whiteSpace=wrap;rounded=0;" vertex="1" parent="1">
          <mxGeometry x="680" y="84" width="60" height="30" as="geometry" />
        </mxCell>
      </root>
    </mxGraphModel>
  </diagram>
</mxfile>
